<ttFont>
          <CharString index="0">
            77 -46 32 -102 callgsubr
            return
          </CharString>
          <CharString index="1">
            vlineto
            -105 callgsubr
            return
          </CharString>
          <CharString index="2">
            281 647 rmoveto
            10 -25 157 callsubr
            return
          </CharString>
          <CharString index="3">
            27 -171 rlineto
            -36 -23 -39 -18 -57 hhcurveto
            -30 -24 9 15 -18 hvcurveto
            -9 16 -5 20 23 vvcurveto
            74 44 73 69 37 vhcurveto
            9 29 -5 31 -30 47 -26 15 rlinecurve
            -77 -58 -50 -112 -116 vvcurveto
            -125 67 -94 91 64 51 40 73 31 vhcurveto
            return
          </CharString>
          <CharString index="4">
            -45 callgsubr
            -16 20 37 callgsubr
            -24 -15 -25 -33 -15 -31 610 callsubr
            return
          </CharString>
          <CharString index="5">
            -54 callsubr
            493 callgsubr
            -43 -86 -110 -26 -66 20 rrcurveto
            return
          </CharString>
          <CharString index="6">
            112 126 -101 callgsubr
            return
          </CharString>
          <CharString index="7">
            31 15 1 449 rlineto
            169 -49 83 -99 -63 -53 -44 -71 -28 vhcurveto
            -5 32 -10 26 -12 20 rrcurveto
            23 -15 -20 14 -22 hhcurveto
            -38 -43 -37 -53 -25 hvcurveto
            16 -34 115 8 rlineto
            return
          </CharString>
          <CharString index="8">
            rmoveto
            124 89 109 147 80 -22 78 -37 60 hvcurveto
            -16 13 -25 12 -26 8 -20 -24 rcurveline
            26 -54 17 -66 -67 vvcurveto
            -119 -46 -60 -90 -39 -36 12 18 -18 vhcurveto
            33 56 rlineto
            19 95 10 55 38 vvcurveto
            return
          </CharString>
          <CharString index="9">
            180 callgsubr
            -99 90 -43 98 126 vvcurveto
            88 30 76 48 38 vhcurveto
            10 27 27 6 29 hhcurveto
            118 81 -99 -146 -113 -42 -86 -94 -88 hvcurveto
            21 -64 rlineto
            305 hlineto
            1 hlineto
            return
          </CharString>
          <CharString index="10">
            -85 callgsubr
            216 hmoveto
            33 -81 callgsubr
            36 -11 rrcurveto
            return
          </CharString>
          <CharString index="11">
            hvcurveto
            -107 -106 callsubr
            return
          </CharString>
          <CharString index="12">
            -17 5 -21 423.5 243 callgsubr
            hstemhm
            84 117 179 117 hintmask 10011100
            204 -16 rmoveto
            45 6 73 30 65 44 15 -41 42 -37 27 -2 111 56 rcurveline
            190 callgsubr
            -16 -10 6 15 hvcurveto
            351 vlineto
            -45 40 -50 -1 -57 -12 -44 -19 rlinecurve
            hintmask 10101100
            10 -48 69 -2 rlineto
            -293 vlineto
            -22 -38 -40 -16 -34 hhcurveto
            -46 -1 -21 28 66 vvcurveto
            280 vlineto
            -44 39 rlineto
            1 -1 vlineto
            -51 -2 -59 -12 -46 -19 rrcurveto
            hintmask 11001100
            10 -48 74 -1 rlineto
            -235 vlineto
            -74 4 -26 12 -19 vhcurveto
            hintmask 10011100
            22 -35 44 -28 38 -6 rrcurveto
            return
          </CharString>
          <CharString index="13">
            402 -16 rmoveto
            111 56 87 callgsubr
            -15 hhcurveto
            -15 -10 6 15 hvcurveto
            224 vlineto
            66 -3 20 -9 17 vhcurveto
            35 -22 -50 36 -47 hhcurveto
            -45 -123 -33 -34 -67 hvcurveto
            -1 -44 8 -49 18 -37 68 3 575 callsubr
            8 329 callgsubr
            -17 16 -26 -62 vvcurveto
            -96 vlineto
            -12 callgsubr
            18 -38 39 -31 25 -2 rlinecurve
            return
          </CharString>
          <CharString index="14">
            -38 callsubr
            13 27 return
          </CharString>
          <CharString index="15">
            -218 vlineto
            -69 callsubr
            525 vlineto
            30 11 30 11 25 14 rrcurveto
            return
          </CharString>
          <CharString index="16">
            rmoveto
            49 50 41 54 19 hvcurveto
            -15 33 -134 -14 73 368 -27 20 -48 -1 -44 -10 -30 -15 rlinecurve
            7 -287 rlineto
            -123 3 38 -66 59 hhcurveto
            return
          </CharString>
          <CharString index="17">
            109 hintmask 10101000
            85 -69 callgsubr
            160 hlineto
            13 27 -38 59 rlineto
            hintmask 10110000
            return
          </CharString>
          <CharString index="18">
            -62 callsubr
            hintmask 10100110
            -24 callgsubr
            hintmask 01101010
            18 callgsubr
            hintmask 10101010
            67 callgsubr
            hintmask 10101001
            200 callsubr
            hintmask 10101010
            -223 -18 rlineto
            227 vlineto
            199 -13 rlineto
            hintmask 10110010
            295 callgsubr
            hintmask 10101010
            6 callgsubr
            return
          </CharString>
          <CharString index="19">
            -83 1 -29 -48 -53 hhcurveto
            -39 -33 19 32 -20 hvcurveto
            31 157 -17 26 -38 5 -45 -4 -32 -11 rlinecurve
            return
          </CharString>
          <CharString index="20">
            39 -58 rlineto
            return
          </CharString>
          <CharString index="21">
            -93 12 rlineto
            114 vlineto
            176 87 205 81 29 vhcurveto
            88 hlineto
            11 38 rlineto
            20 -25 -41 17 -38 hhcurveto
            -90 -82 -118 -208 -39 hvcurveto
            -1 hlineto
            -10 105 rlineto
            151 -50 -61 70 -83 hhcurveto
            -41 -46 -18 -26 -37 hvcurveto
            return
          </CharString>
          <CharString index="22">
            60 callgsubr
            638 callsubr
            hintmask 00101100
            254 161 rmoveto
            -93 vlineto
            hintmask 10001100
            69 callsubr
            hintmask 01001100
            -86 callsubr
            hintmask 10010100
            11 -39 82 5 rlineto
            hintmask 00101100
            81 -44 81 -210 -167 vvcurveto
            return
          </CharString>
          <CharString index="23">
            rmoveto
            152 98 87 224 hvcurveto
            hintmask 10011100
            294 vlineto
            30 11 30 11 25 14 rrcurveto
            hintmask 11001100
            -7 callsubr
            hintmask 10011100
            317 203 callgsubr
            -277 hlineto
            hintmask 10101100
            567 callgsubr
            hintmask 11001100
            -203 120 -105 168 vhcurveto
            return
          </CharString>
          <CharString index="24">
            19 50 46 -73 callgsubr
            return
          </CharString>
          <CharString index="25">
            78 -81 85 -97 -65 -65 -38 -45 -46 vhcurveto
            61 -82 58 55 74 35 50 -5 rlinecurve
            14 -10 12 -20 -22 vvcurveto
            -35 -26 -47 -62 -32 vhcurveto
            -38 -2 -40 -14 -32 -26 60 -98 rcurveline
            return
          </CharString>
          <CharString index="26">
            rmoveto
            133 99 117 155 141 -88 99 -124 -133 -99 -117 -155 -141 88 -99 124 hvcurveto
            -26 118 rmoveto
            -33 -35 6 14 -26 hvcurveto
            -13 22 -7 28 31 vvcurveto
            101 70 74 116 32 36 -6 -14 26 vhcurveto
            13 -22 6 -28 -30 vvcurveto
            -102 -69 -74 -116 vhcurveto
            return
          </CharString>
          <CharString index="27">
            -49 -27 -37 -81 -13 hvcurveto
            35 -14 26 43 rlineto
            23 46 95 -77 71 hhcurveto
            return
          </CharString>
          <CharString index="28">
            111 -32 callsubr
            -36 16 -35 -1 rlinecurve
            return
          </CharString>
          <CharString index="29">
            -104 -20 73 366 73 hstem
            17 122 221 121 vstem
            151 callgsubr
            return
          </CharString>
          <CharString index="30">
            -27 -47 rlineto
            -17 28 callgsubr
            -49 -28 -37 -81 -12 hvcurveto
            35 -15 25 44 rlineto
            23 47 95 -78 71 hhcurveto
            return
          </CharString>
          <CharString index="31">
            67 -43 48 -49 -39 -50 -36 -49 -25 vhcurveto
            17 -37 94 12 rlineto
            -29 -133 -5 -30 -47 vvcurveto
            return
          </CharString>
          <CharString index="32">
            vlineto
            -107 callsubr
            162 hlineto
            13 27 return
          </CharString>
          <CharString index="33">
            212 424 rmoveto
            63 2 50 -44 11 -60 -195 -10 rcurveline
            10 46 22 44 39 22 rrcurveto
            70 -438 213 callsubr
            return
          </CharString>
          <CharString index="34">
            vstem
            -105 callsubr
            return
          </CharString>
          <CharString index="35" raw="1">
            fca40620 1d0b  
          </CharString>
          <CharString index="36">
            123 vstem
            279 -20 rmoveto
            123 111 71 126 116 -93 48 -93 43 hvcurveto
            -85 40 -67 28 62 vvcurveto
            31 15 36 32 19 vhcurveto
            54 5 58 -8 50 -29 19 -104 rcurveline
            67 hlineto
            12 61 3 75 -2 41 rrcurveto
            15 -45 -69 18 -67 hhcurveto
            -132 -113 -69 -120 -111 97 -49 87 -41 hvcurveto
            87 -41 62 -29 -66 vvcurveto
            -35 -17 -38 -39 -20 vhcurveto
            -52 -3 -64 7 -56 33 -32 132 rcurveline
            -63 hlineto
            -12 -58 -4 -79 4 -37 -1 -3 rcurveline
            -44 53 103 -23 69 hhcurveto
            return
          </CharString>
          <CharString index="37">
            vlineto
            -89 callgsubr
            return
          </CharString>
          <CharString index="38">
            -84 callgsubr
            -95 12 rlineto
            return
          </CharString>
          <CharString index="39">
            rmoveto
            27 32 25 29 12 hvcurveto
            -9 27 -65 -12 return
          </CharString>
          <CharString index="40">
            65 vvcurveto
            -45 callsubr
            return
          </CharString>
          <CharString index="41">
            rmoveto
            72 599 callsubr
            6 -32 rcurveline
            494 hlineto
            return
          </CharString>
          <CharString index="42">
            -75 callsubr
            -38 59 rlineto
            return
          </CharString>
          <CharString index="43">
            53.5 137.5 69 return
          </CharString>
          <CharString index="44">
            -6 32 7 callgsubr
            return
          </CharString>
          <CharString index="45">
            -93 callgsubr
            140 callsubr
            return
          </CharString>
          <CharString index="46">
            240 -20 -81 callsubr
            return
          </CharString>
          <CharString index="47">
            105 callgsubr
            12 53 44 52 vvcurveto
            71 -98 98 -108 vhcurveto
            return
          </CharString>
          <CharString index="48">
            -13 -28 rlineto
            return
          </CharString>
          <CharString index="49">
            32 -15 34 28 vvcurveto
            46 41 32 46 -11 vhcurveto
            31 -24 20 -34 21 -39 47 31 rcurveline
            106 -48 -57 50 -76 hhcurveto
            return
          </CharString>
          <CharString index="50">
            159 -248 -12 99 vvcurveto
            17 7 21 27 14 vhcurveto
            29 2 36 -5 34 -11 15 -84 rcurveline
            65 hlineto
            15 43 5 46 -3 44 rrcurveto
            -1 hlineto
            20 -39 -50 11 -48 hhcurveto
            -108 -92 -54 -94 hvcurveto
            -153 245 15 -105 vvcurveto
            -21 -9 -17 -15 -13 vhcurveto
            -71 14 -70 34 -51 37 -44 -102 rcurveline
            return
          </CharString>
          <CharString index="51">
            573 callsubr
            -37 -18 rrcurveto
            -38 -58 callsubr
            return
          </CharString>
          <CharString index="52">
            rmoveto
            28 33 25 30 12 hvcurveto
            -11 27 -61 -11 35 99 rlineto
            return
          </CharString>
          <CharString index="53">
            -39 callgsubr
            rrcurveto
            return
          </CharString>
          <CharString index="54">
            71 callgsubr
            -253 hlineto
            -32 -27 -35 -14 -33 hhcurveto
            -37 -30 17 30 -16 hvcurveto
            return
          </CharString>
          <CharString index="55">
            -25 18 -21 22 28 vvcurveto
            37 35 32 45 -11 vhcurveto
            23 -19 12 -30 -27 vvcurveto
            return
          </CharString>
          <CharString index="56">
            -315 0 48 -48 62 -62 71 334.5 159 callgsubr
            0 572 callgsubr
            hintmask 01001100
            25 474 callgsubr
            243 hlineto
            hintmask 10001100
            4 48 rlineto
            hintmask 00101100
            261 callgsubr
            rrcurveto
            376 -4 callgsubr
            hintmask 01010100
            256 callgsubr
            -343 vlineto
            hintmask 01001100
            230 callsubr
            return
          </CharString>
          <CharString index="57">
            -36 14 -27 -47 rlineto
            -18 28 callgsubr
            return
          </CharString>
          <CharString index="58">
            -68 callsubr
            540 callsubr
            -56 5 21 -33 34 hhcurveto
            return
          </CharString>
          <CharString index="59">
            6 -84 rlineto
            11 callgsubr
            return
          </CharString>
          <CharString index="60">
            91 6 -96 callgsubr
            return
          </CharString>
          <CharString index="61">
            -84 callgsubr
            rlineto
            return
          </CharString>
          <CharString index="62">
            54 -34 46 -56 40 vhcurveto
            return
          </CharString>
          <CharString index="63">
            rmoveto
            25 -35 16 callgsubr
            57 vvcurveto
            40 -26 39 -45 10 vhcurveto
            -36 -16 -19 -28 -6 -39 52 -39 rcurveline
            -3 -33 -17 212 callsubr
            endchar
          </CharString>
          <CharString index="64">
            rmoveto
            -60 callsubr
            return
          </CharString>
          <CharString index="65">
            -10 -26 -39 -40 vvcurveto
            -57 -53 callgsubr
            endchar
          </CharString>
          <CharString index="66">
            31 29 40 88 56 hvcurveto
            -33 29 -85 -70 rlineto
            55 -106 -60 31 -33 hhcurveto
            -38 -35 -46 -75 -50 hvcurveto
            42 -32 rlineto
            38 35 27 24 19 35 121 -82 45 hhcurveto
            return
          </CharString>
          <CharString index="67">
            -62 64 57 104 145 -24 13 27 rcurveline
            -54 73 return
          </CharString>
          <CharString index="68">
            -331 22 callgsubr
            return
          </CharString>
          <CharString index="69">
            163 hlineto
            return
          </CharString>
          <CharString index="70">
            hlineto
            -46 callgsubr
            return
          </CharString>
          <CharString index="71">
            243 vlineto
            62 51 50 37 44 hhcurveto
            43 15 -30 -29 -55 -57 -55 -85 -61 hvcurveto
            78 -84 rlineto
            93 61 60 76 88 vvcurveto
            400 callgsubr
            return
          </CharString>
          <CharString index="72">
            168 callgsubr
            -39 59 rlineto
            return
          </CharString>
          <CharString index="73">
            -4 0 83.5 371.5 199 -74.5 74.5 -56 56 hstemhm
            34 533 hintmask 11001000
            72 455 rmoveto
            69 hlineto
            hintmask 10101000
            22 118 250 13 -379 -530 30 -56 rlineto
            477 hlineto
            13 70 9 61 4 67 -74 10 rcurveline
            -39 -122 -265 -5 rlineto
            hintmask 10011000
            371 517 rlineto
            hintmask 10101000
            -27 56 -2 -2 1 2 rlineto
            -469 hlineto
            hintmask 11001000
            -4 -44 2 -90 11 -65 rrcurveto
            return
          </CharString>
          <CharString index="74">
            rmoveto
            63 -110 128 74 71 94 48 116 rlinecurve
            hintmask 11010010
            39 102 39 125 34 115 20 7 20 8 19 9 -5 41 rcurveline
            -227 hlineto
            hintmask 11100110
            -1 -51 56 -12 -21 -104 -31 -119 -31 -89 rlinecurve
            -18 hlineto
            -14 101 rlineto
            hintmask 11010100
            -67 210 18 7 19 7 18 9 rlinecurve
            -5 41 rlineto
            -237 hlineto
            hintmask 11100100
            -1 -51 61 -17 135 -372 18 -13 25 -12 21 -7 rlinecurve
            hintmask 11011000
            -54 -52 -67 -31 -73 -26 rrcurveto
            return
          </CharString>
          <CharString index="75">
            -31 callgsubr
            18 return
          </CharString>
          <CharString index="76">
            rmoveto
            -107 callsubr
            return
          </CharString>
          <CharString index="77">
            -40 callsubr
            rlineto
            return
          </CharString>
          <CharString index="78">
            -39 596 rmoveto
            return
          </CharString>
          <CharString index="79">
            86 64 111 162 96 -58 58 105 244 callsubr
            94 -94 281 -109 109 hintmask 11001101
            -29 callsubr
            hintmask 11010101
            -87 callsubr
            499 -105 352 callsubr
            -93 -83 hhcurveto
            -82 -48 93 497 callgsubr
            90 -140 127 hhcurveto
            hintmask 11010101
            623 callgsubr
            50 -24 49 -45 38 hvcurveto
            147 -195 hlineto
            return
          </CharString>
          <CharString index="80">
            rmoveto
            266 callgsubr
            167 callsubr
            return
          </CharString>
          <CharString index="81">
            355 -16 rmoveto
            201 89 -22 60 -159 -54 rlineto
            -151 -9 -78 122 151 vvcurveto
            92 28 107 80 51 vhcurveto
            66 4 56 -12 51 -26 16 -115 rcurveline
            76 hlineto
            18 56 5 72 -4 37 1 3 rcurveline
            27 -37 -66 35 -96 hhcurveto
            -217 -106 -179 -176 return
          </CharString>
          <CharString index="82">
            -528 hlineto
            -105 callgsubr
            return
          </CharString>
          <CharString index="83">
            rmoveto
            101 259 100 -259 rlineto
            return
          </CharString>
          <CharString index="84">
            140 callsubr
            hintmask 1010010100000000
            -24 callgsubr
            hintmask 0110100100000000
            18 callgsubr
            hintmask 1010100100000000
            67 callgsubr
            hintmask 1010100010000000
            200 callsubr
            hintmask 1010100100000000
            -223 -18 rlineto
            227 vlineto
            199 -13 rlineto
            hintmask 1011000100000000
            295 callgsubr
            return
          </CharString>
          <CharString index="85">
            rmoveto
            31 16 21 25 9 33 -5 30 -33 30 21 callsubr
            -5 -40 15 -32 26 -20 37 -10 rrcurveto
            endchar
          </CharString>
          <CharString index="86">
            92 54 -3 70 callgsubr
            rlineto
            return
          </CharString>
          <CharString index="87">
            rmoveto
            53 34 38 49 54 41 -45 -74 -42 -13 -38 -24 -33 vhcurveto
            -85 15 -56 56 70 vvcurveto
            return
          </CharString>
          <CharString index="88">
            530 callsubr
            hintmask 1010010001000000
            -24 callgsubr
            hintmask 0110100001000000
            18 callgsubr
            hintmask 1010100001000000
            67 callgsubr
            hintmask 1010100000100000
            200 callsubr
            hintmask 1010100001000000
            -223 -18 rlineto
            227 vlineto
            199 -13 rlineto
            hintmask 1011000001000000
            295 callgsubr
            return
          </CharString>
          <CharString index="89">
            -140 hlineto
            -98 419 callsubr
            return
          </CharString>
          <CharString index="90">
            152 callsubr
            294 549 -75 callgsubr
            132 -795 -91 callgsubr
            hintmask 01101110
            -88 callsubr
            hintmask 10110110
            -104 callsubr
            hintmask 10101110
            300 callgsubr
          </CharString>
          <CharString index="91">
            0 callsubr
            43 return
          </CharString>
          <CharString index="92">
            38 183 callsubr
            return
          </CharString>
          <CharString index="93">
            303 callgsubr
            hintmask 10100100
            37 47 46 38 35 23 rrcurveto
            hintmask 11000100
            16 -112 rlineto
            65 hlineto
            17 53 11 69 -1 54 -30 23 -47 9 -47 -18 -102 -111 rcurveline
            hintmask 10001100
            372 callgsubr
            hintmask 10010100
            256 callgsubr
            -344 vlineto
            hintmask 11000100
            -26 -8 -28 -11 -20 -10 rrcurveto
            return
          </CharString>
          <CharString index="94">
            hlineto
            -60 callgsubr
            return
          </CharString>
          <CharString index="95">
            hlineto
            1 49 return
          </CharString>
          <CharString index="96">
            140 -117 94 2 139 129 -49 55 -133 -112 -127 108 rlineto
            endchar
          </CharString>
          <CharString index="97">
            rmoveto
            24 13 20 19 20 -13 19 -24 -25 -12 -19 -20 -19 12 -20 25 hvcurveto
            return
          </CharString>
          <CharString index="98">
            -60 225 -35 2 -36 -16 -21 -19 rlinecurve
            return
          </CharString>
          <CharString index="99">
            549 -75 callgsubr
            14 callsubr
            return
          </CharString>
          <CharString index="100">
            -6 32 rlineto
            -256 hlineto
            -1 -49 87 -11 rlineto
            -315 vlineto
            -96 -20 -65 -39 -32 vhcurveto
            -13 -26 -28 -8 -37 hhcurveto
            -108 -67 70 134 hvcurveto
            return
          </CharString>
          <CharString index="101">
            192 rmoveto
            -55 callgsubr
            284 callgsubr
            return
          </CharString>
          <CharString index="102">
            -104 -106 callsubr
            return
          </CharString>
          <CharString index="103">
            -104 callgsubr
            endchar
          </CharString>
          <CharString index="104">
            rmoveto
            176 -158 44 46 -127 119 rlineto
            55 -57 -31 15 -39 hhcurveto
            -38 -42 -14 -36 -47 hvcurveto
            70 -69 rlineto
            return
          </CharString>
          <CharString index="105">
            -47 -44 -21 -113 -14 vhcurveto
            return
          </CharString>
          <CharString index="106">
            rmoveto
            138 -147 96 2 124 162 -59 49 -110 -138 -117 137 rlineto
            endchar
          </CharString>
          <CharString index="107">
            rmoveto
            110 -189 return
          </CharString>
          <CharString index="108">
            rmoveto
            84 -197 47 14 -31 230 -35 3 -38 -10 -24 -17 rlinecurve
            -69 -200 rmoveto
            229 callgsubr
            301 hmoveto
            229 callgsubr
            endchar
          </CharString>
          <CharString index="109">
            -90 callsubr
            -124 hlineto
            return
          </CharString>
          <CharString index="110">
            175 140 98 88 98 114 125 callgsubr
            212 89 hintmask 10101110
            165 286 93 callsubr
            hintmask 10011110
            -204 310 rmoveto
            hintmask 11101110
            255 callgsubr
            -120 127 -126 110 17 18 3 8 18 vhcurveto
            -141 vlineto
            -71 callgsubr
            63 callgsubr
            93 callgsubr
            -808 hlineto
            return
          </CharString>
          <CharString index="111">
            -87 callsubr
            68 -239 hlineto
            -107 66 -72 89 -42 vhcurveto
            209 -102 51 -29 8 -31 -37 -53 rlinecurve
            101 -50 rlineto
            22 25 13 30 34 vvcurveto
            61 -44 44 -126 60 vhcurveto
            -243 116 rlineto
            314 vlineto
            -50 41 rlineto
            return
          </CharString>
          <CharString index="112">
            -27 callsubr
            238 vlineto
            return
          </CharString>
          <CharString index="113">
            12 -20 -24 6 -24 hhcurveto
            -75 -80 -57 -102 return
          </CharString>
          <CharString index="114">
            rlinecurve
            43 callgsubr
            return
          </CharString>
          <CharString index="115">
            73 vstem
            -61 callsubr
            return
          </CharString>
          <CharString index="116">
            350 callsubr
            168 -25 callsubr
            return
          </CharString>
          <CharString index="117">
            8 56 6 85 -2 48 -61 5 rcurveline
            return
          </CharString>
          <CharString index="118">
            hlineto
            -89 callgsubr
            return
          </CharString>
          <CharString index="119">
            -1 0 49 -49 65 -65 67 174 70 275.5 316 callsubr
            111 122 227 129 hintmask 1001100110000000
            390 594 rmoveto
            46 -24 24 -59 587 callsubr
            -18 -38 2 6 -35 vhcurveto
            260 vlineto
            -205 -547 613 callgsubr
            1 49 rlineto
            hintmask 0101100110000000
            -119 16 rlineto
            176 117 vlineto
            154 1 85 100 108 vvcurveto
            106 -83 107 -165 -1 vhcurveto
            hintmask 1001001110000000
            -301 -8 rlineto
            hintmask 0011010110000000
            500 callsubr
            -530 vlineto
            hintmask 1001100110000000
            532 callsubr
            rrcurveto
            endchar
          </CharString>
          <CharString index="120">
            rmoveto
            -60 226 -35 1 -36 -16 -22 -18 rlinecurve
            -1 -23 111 -189 rlineto
            endchar
          </CharString>
          <CharString index="121">
            -209 -210 -103 callgsubr
            return
          </CharString>
          <CharString index="122">
            0 49 -49 61 -61 68 return
          </CharString>
          <CharString index="123">
            78 0 53.5 546.5 547 callgsubr
            113 122 hintmask 11001000
            35 605 rmoveto
            78 -10 rlineto
            -527 403 callsubr
            291 -12 callsubr
            -91 12 rlineto
            179 vlineto
            54 57 215 -297 rlineto
            169 hlineto
            1 50 -59 7 -245 327 rlineto
            hintmask 10011000
            195 207 27 9 28 10 21 12 rlinecurve
            hintmask 11001000
            -6 32 rlineto
            -233 hlineto
            hintmask 10101000
            -1 -49 68 -9 -234 -251 rlineto
            hintmask 10011000
            629 callgsubr
            hintmask 11001000
            -6 32 rlineto
            -278 hlineto
            endchar
          </CharString>
          <CharString index="124">
            -81 callsubr
            endchar
          </CharString>
          <CharString index="125">
            20 rmoveto
            24 25 4 7 24 hvcurveto
            42 -169 65 15 8 25 -63 157 25 20 22 29 6 20 rlinecurve
            -100 97 -44 -22 10 -65 -45 -24 -67 -10 -45 14 rlinecurve
            -28 23 -11 31 27 vvcurveto
            53 40 46 107 24 28 -2 -8 38 vhcurveto
            -4 101 rlineto
            9 -41 -40 4 -30 hhcurveto
            hintmask 11110000
            -37 -32 -5 -9 -27 hvcurveto
            -36 24 -15 28 26 vvcurveto
            49 49 30 70 vhcurveto
            hintmask 11101000
            48 48 -15 -25 47 hvcurveto
            1 98 rlineto
            29 -51 -60 13 -53 hhcurveto
            hintmask 11110000
            -121 -73 -66 -80 -54 33 -47 56 -39 hvcurveto
            hintmask 11100100
            -43 -33 -21 -47 -48 vvcurveto
            -69 42 -57 60 -40 vhcurveto
            -30 45 51 -15 49 hhcurveto
            endchar
          </CharString>
          <CharString index="126">
            -48 -14 -56 callgsubr
            return
          </CharString>
          <CharString index="127">
            rmoveto
            39 -65 84 35 79 32 84 32 rlinecurve
            -54 97 rlineto
            return
          </CharString>
          <CharString index="128">
            -36 -37 callgsubr
            return
          </CharString>
          <CharString index="129">
            hlineto
            -88 callgsubr
            return
          </CharString>
          <CharString index="130">
            25 callgsubr
            hstemhm
            113 92 351 91 hintmask 10100110
            272 callgsubr
            hintmask 01100110
            325 callgsubr
            hintmask 10001110
            204 callgsubr
            hintmask 10100110
            592 callgsubr
            hintmask 10010110
            280 callgsubr
            hintmask 10100110
            63 callsubr
            endchar
          </CharString>
          <CharString index="131">
            -73 -51 -87 -50 -102 hhcurveto
            -27 -18 4 6 -17 hvcurveto
            -26 18 -13 28 25 vvcurveto
            50 51 41 96 -25 vhcurveto
            20 28 -53 73 return
          </CharString>
          <CharString index="132">
            rmoveto
            51 27 37 81 13 hvcurveto
            return
          </CharString>
          <CharString index="133">
            224 callsubr
            hstemhm
            113 590 callgsubr
            hintmask 10101100
            85 callsubr
            hintmask 01101100
            245 callsubr
            hintmask 10011100
            -92 callsubr
            hintmask 10101100
            502 callsubr
            hintmask 10011100
            222 vlineto
            30 11 30 11 25 14 rrcurveto
            hintmask 10101100
            69 callgsubr
          </CharString>
          <CharString index="134">
            124 57 79 70 73 -63 93 -96 -67 -51 -47 -66 -25 7 -24 15 -24 hvcurveto
            52 -34 rlineto
            -1 -5 -6 0 -5 hhcurveto
            -46 -41 13 15 -36 hvcurveto
            -40 35 -20 47 42 vvcurveto
            65 47 64 98 vhcurveto
            return
          </CharString>
          <CharString index="135">
            21 -7 callgsubr
            return
          </CharString>
          <CharString index="136">
            -21 callgsubr
            482 490 callgsubr
            -20 731 hintmask 11101000
            -105 callsubr
            -281 536 377 callsubr
            hintmask 11011000
            47 38 rlineto
            hintmask 11101000
            400 callsubr
          </CharString>
          <CharString index="137">
            -40 callgsubr
            endchar
          </CharString>
          <CharString index="138">
            31 callgsubr
            374 -19 -84 callsubr
            return
          </CharString>
          <CharString index="139">
            191.5 return
          </CharString>
          <CharString index="140">
            258 callsubr
            hintmask 11101110
            -29 callsubr
            hintmask 11110110
            228 callsubr
            hintmask 11110101
            -33 callgsubr
            hintmask 11110110
            143 callgsubr
            -629 hlineto
            return
          </CharString>
          <CharString index="141">
            -117 131 -86 94 vhcurveto
            endchar
          </CharString>
          <CharString index="142">
            hhcurveto
            33 40 8 24 34 hvcurveto
            -108 -75 callsubr
            -39 59 rlineto
            -281 hlineto
            return
          </CharString>
          <CharString index="143">
            vvcurveto
            76 -59 72 -92 25 77 callsubr
            return
          </CharString>
          <CharString index="144">
            32 12 rlineto
            return
          </CharString>
          <CharString index="145">
            rmoveto
            83 66 57 98 19 hvcurveto
            -89 43 rlineto
            -75 -16 -46 -33 -50 hhcurveto
            -49 -54 33 76 -43 hvcurveto
            -46 -41 rlineto
            -106 55 91 -52 79 hhcurveto
            -29 145 rmoveto
            25 16 25 33 11 28 -15 20 -33 30 -28 11 -23 -14 -25 -33 -15 -30 16 -24 38 -28 24 -9 rrcurveto
            endchar
          </CharString>
          <CharString index="146">
            71 34 41 65 return
          </CharString>
          <CharString index="147">
            61 166 169 callgsubr
            -22 99 177 105 195 106 hintmask 0100010111100000
            -29 callsubr
            hintmask 0101011011100000
            -87 callsubr
            554 41 callsubr
            20 -12 20 -8 21 -7 -111 -58 rcurveline
            hintmask 0110111011100000
            -69 102 rlineto
            53 -33 -68 43 -70 hhcurveto
            -69 -53 -41 -62 -61 54 -51 106 -8 hvcurveto
            11 49 rlineto
            -49 6 -23 27 30 vvcurveto
            20 10 19 20 11 vhcurveto
            30 -5 14 -24 18 -26 88 -126 rcurveline
            -50 -26 -4 -48 rlineto
            -33 46 92 -21 49 hhcurveto
            28 39 -33 return
          </CharString>
          <CharString index="148">
            572 callsubr
            -154 -62 -90 -87 -87 63 -77 73 -42 hvcurveto
            return
          </CharString>
          <CharString index="149">
            -51 rlineto
            -26 18 -9 16 16 vvcurveto
            31 37 23 return
          </CharString>
          <CharString index="150">
            -20 hstemhm
            113 590 callgsubr
            hintmask 10100110
            85 callsubr
            hintmask 01100110
            245 callsubr
            hintmask 10010110
            -92 callsubr
            hintmask 10100110
            502 callsubr
            hintmask 10010110
            222 269 callsubr
            -527 vlineto
            -29 -11 -30 -11 -26 -14 rrcurveto
            return
          </CharString>
          <CharString index="151">
            387 callsubr
            243 340 callgsubr
            271 vlineto
            28 42 49 25 33 hhcurveto
            37 1 28 -29 -75 vvcurveto
            return
          </CharString>
          <CharString index="152">
            93 192 -198 -106 callsubr
            return
          </CharString>
          <CharString index="153">
            92 -145 22 -34 15 -19 28 -9 rlinecurve
            128 37 -12 48 -37 -6 -21 2 -18 26 rlinecurve
            -108 156 154 182 -35 55 rlineto
            1 -1 vlineto
            -50 -2 -79 -12 -53 -19 10 -48 rcurveline
            76 4 -116 -140 -56 -33 rlineto
            457 vlineto
            -45 40 return
          </CharString>
          <CharString index="154">
            -40 -9 97 233 169 callgsubr
            42 104 195 106 369 callgsubr
            341 282 callsubr
            375 callsubr
            21 3 7 22 hvcurveto
            46 -193 164 callsubr
            295 callsubr
            -593 hlineto
            return
          </CharString>
          <CharString index="155">
            550 53 callsubr
          </CharString>
          <CharString index="156">
            37 13 29 38 5 35 -54 44 rcurveline
            5 40 26 42 37 28 -32 41 rcurveline
            -80 -42 -51 -70 -67 vvcurveto
            -38 17 -40 61 -24 vhcurveto
            return
          </CharString>
          <CharString index="157">
            44 -18 36 -2 29 11 rrcurveto
            -220 vlineto
            -107 callsubr
            return
          </CharString>
          <CharString index="158">
            80 66 53 104 3 hvcurveto
            -87 6 rlineto
            -54 -1 -26 -33 -41 hhcurveto
            -35 -30 23 67 -9 hvcurveto
            return
          </CharString>
          <CharString index="159">
            rmoveto
            -60 callgsubr
            hintmask 10110010
            -118 hlineto
            -19 39 -9 36 30 vvcurveto
            103 callgsubr
            -71 -61 -54 -86 -5 hvcurveto
            hintmask 10101101
            98 -70 -89 65 -100 hhcurveto
            -100 -69 -65 -82 -59 36 -55 50 -43 hvcurveto
            39 25 rlineto
            -18 25 -10 29 25 vvcurveto
            50 40 49 69 88 75 -83 -142 72 vhcurveto
            -107 hlineto
            hintmask 01101001
            -59 callsubr
            hintmask 10101001
            294 callsubr
          </CharString>
          <CharString index="160">
            rmoveto
            33 -81 callgsubr
            36 -11 rrcurveto
            -216 116 callsubr
          </CharString>
          <CharString index="161">
            rmoveto
            -32 -28 23 34 33 25 25 34 32 25 -24 -35 -33 -23 -23 -33 hvcurveto
            2 -43 rmoveto
            64 46 45 65 67 -50 49 -64 -65 -48 -50 -64 -68 53 -44 64 hvcurveto
            return
          </CharString>
          <CharString index="162">
            157 callgsubr
            -61 -51 -42 -59 -39 23 -49 85 -54 hvcurveto
            36 39 return
          </CharString>
          <CharString index="163">
            147 -6 callsubr
            34 -280 rmoveto
            -103 callsubr
            return
          </CharString>
          <CharString index="164">
            -81 5 -21 184 52.5 203.5 72 return
          </CharString>
          <CharString index="165">
            223 120 188 callgsubr
            -699 hlineto
            endchar
          </CharString>
          <CharString index="166">
            130 callsubr
            hstemhm
            113 122 hintmask 10010100
            return
          </CharString>
          <CharString index="167">
            -20 -23 callsubr
            hintmask 1010100100000000
            6 callgsubr
            return
          </CharString>
          <CharString index="168">
            725 569 callgsubr
            -43 98 82 477 callgsubr
            -298 98 -98 298 540 callgsubr
            170 519 callgsubr
            hintmask 1100000110111110
            56 callsubr
            return
          </CharString>
          <CharString index="169">
            -68 callgsubr
            15 callgsubr
            return
          </CharString>
          <CharString index="170">
            -325 515 rlineto
            -201 hlineto
            -1 -49 68 -9 rlineto
            -528 360 callsubr
            return
          </CharString>
          <CharString index="171">
            185 rmoveto
            3 3 0 4 hhcurveto
            hintmask 00100101
            -19 -32 -22 -30 -26 -26 -67 36 rcurveline
            -36 -21 rlineto
            -124 vlineto
            hintmask 10000101
            43 -9 54 14 35 17 rrcurveto
            hintmask 01000010
            190 -92 45 32 1 31 -178 78 rlineto
            hintmask 10001001
            110 115 58 181 -9 215 -96 28 rcurveline
            2 -90 -7 -101 -26 -92 -41 -40 -64 -18 -58 33 -30 68 33 129 44 112 -101 38 rcurveline
            -40 -85 -16 -90 -51 vvcurveto
            hintmask 00011001
            -141 119 -85 92 vhcurveto
            endchar
          </CharString>
          <CharString index="172">
            1 -261 -102 callsubr
            return
          </CharString>
          <CharString index="173">
            222 -87 callgsubr
            return
          </CharString>
          <CharString index="174">
            rmoveto
            26 17 26 34 11 29 -16 21 37 callgsubr
            -25 -14 -25 -34 -16 -32 17 -24 39 -29 25 -10 rrcurveto
            endchar
          </CharString>
          <CharString index="175">
            58 0 53 203.5 67.5 262.5 239 callgsubr
            return
          </CharString>
          <CharString index="176">
            -31 -10 -30 -12 -25 -14 189 callsubr
            return
          </CharString>
          <CharString index="177">
            166 11 10 11 9 10 10 rlinecurve
            return
          </CharString>
          <CharString index="178">
            -230 86 88 364 -94 callgsubr
            197 100 hintmask 10110000
            -29 callsubr
            hintmask 11010000
            111 callsubr
            283 callsubr
            70 74 36 64 38 hvcurveto
            -64 91 -48 -87 -117 -30 -70 19 rlinecurve
            303 callsubr
            220 hlineto
            256 callsubr
            -427 hlineto
            return
          </CharString>
          <CharString index="179">
            146 callgsubr
            176 22 callsubr
            return
          </CharString>
          <CharString index="180">
            -329 -14 121 361 20 return
          </CharString>
          <CharString index="181">
            -52 -15 100 215 105 133 -94 callgsubr
            41 102 180 107 369 callgsubr
            323 -133 -67 hlineto
            -149 -66 -75 -92 -148 167 -105 124 66 79 31 70 52 hvcurveto
            258 callgsubr
            466 callsubr
            196 -98 callgsubr
            203 hlineto
            13 27 -38 59 rlineto
            -582 hlineto
            return
          </CharString>
          <CharString index="182">
            hintmask 0100010011000000
            -93 390 callsubr
            268 hlineto
            hintmask 1000100011000000
            4 48 rlineto
            hintmask 0010100011000000
            305 callsubr
            hintmask 0100001011000000
            48 54 rlineto
            hintmask 0100100111000000
            143 callsubr
            hintmask 0001000011000000
            209 callgsubr
            return
          </CharString>
          <CharString index="183">
            465 rmoveto
            54 37 40 45 vhcurveto
            hintmask 11100000
            42 23 -35 -34 -45 -42 -52 -55 -34 hvcurveto
            hintmask 11010000
            -31 35 -19 33 38 vvcurveto
            214 -460 rmoveto
            102 -47 rlineto
            21 25 9 22 23 vvcurveto
            42 -29 40 -52 47 vhcurveto
            -139 129 rlineto
            hintmask 11100000
            63 42 49 57 64 vvcurveto
            85 -85 113 -107 -84 -65 -67 -84 1 vhcurveto
            1 -76 54 -61 58 -55 rrcurveto
            hintmask 11010000
            191 -187 40 -38 3 -37 -31 -37 rlinecurve
            endchar
          </CharString>
          <CharString index="184">
            vhcurveto
            -174 42 callsubr
            57 vhcurveto
            return
          </CharString>
          <CharString index="185">
            -21 callgsubr
            399 -20 115 callsubr
            return
          </CharString>
          <CharString index="186">
            -1 48 rlineto
            -291 hlineto
            -6 -34 33 -17 39 -14 33 -11 rlinecurve
            -146 vlineto
            -34 -8 -39 -7 -35 1 rrcurveto
            -143 2 -72 127 133 vvcurveto
            107 35 108 81 50 vhcurveto
            85 8 71 -20 50 -24 rrcurveto
            return
          </CharString>
          <CharString index="187">
            6 callsubr
            169 callsubr
            hvcurveto
            return
          </CharString>
          <CharString index="188">
            285 callsubr
            -21 330 callgsubr
            return
          </CharString>
          <CharString index="189">
            -20 117 389 -20 21 -20 return
          </CharString>
          <CharString index="190">
            23 -16 15 -37 -28 vvcurveto
            -60 -60 -70 -109 -19 vhcurveto
            -57 58 -37 -8 -38 -122 22 -19 59 -13 41 -1 rlinecurve
            217 -162 48 43 -1 27 -158 110 rlineto
            112 36 60 81 81 vvcurveto
            return
          </CharString>
          <CharString index="191">
            -87 callsubr
            355 -68 -147 hlineto
            -111 -51 -57 -59 -77 88 -93 116 -24 hvcurveto
            166 44 rlineto
            return
          </CharString>
          <CharString index="192">
            28 32 -9 callgsubr
            return
          </CharString>
          <CharString index="193">
            -110 73 -74 66 83 vvcurveto
            59 37 37 51 return
          </CharString>
          <CharString index="194">
            75 74 41 72 38 35 -12 -19 25 vhcurveto
            6 -35 -36 -51 -49 -32 78 -76 rcurveline
            55 31 32 47 58 vvcurveto
            108 -108 72 -120 return
          </CharString>
          <CharString index="195">
            509 callsubr
            -65 -50 -44 -58 -38 22 -44 83 -54 hvcurveto
            36 36 rlineto
            -52 callsubr
            return
          </CharString>
          <CharString index="196">
            226 536 callsubr
            119 -98 callgsubr
            182 334 callsubr
          </CharString>
          <CharString index="197">
            238 callgsubr
            hstemhm
            28 66 return
          </CharString>
          <CharString index="198">
            212 callgsubr
            -95 12 rlineto
            return
          </CharString>
          <CharString index="199">
            404 callsubr
            122 callsubr
            return
          </CharString>
          <CharString index="200">
            71 callgsubr
            -255 hlineto
            -30 -26 -34 -15 -35 hhcurveto
            -34 -30 15 33 -19 hvcurveto
            return
          </CharString>
          <CharString index="201">
            5 callsubr
            244 callgsubr
            return
          </CharString>
          <CharString index="202">
            202 -14 271 callsubr
            return
          </CharString>
          <CharString index="203">
            138 callsubr
            -129 hlineto
            return
          </CharString>
          <CharString index="204">
            hlineto
            -30 -44 21 -63 75 -69 61 -29 rlinecurve
            return
          </CharString>
          <CharString index="205">
            25 -21 4 -30 -34 vvcurveto
            1 return
          </CharString>
          <CharString index="206">
            277 callsubr
            -226 -257 187 callsubr
            618 -144 -43 callsubr
            -204 33 hlineto
            -46 37 rlineto
            547 97 callgsubr
            rrcurveto
            return
          </CharString>
          <CharString index="207">
            rmoveto
            41 -36 87 78 54 115 -69 76 rlinecurve
            -98 -47 2 -34 50 -24 -20 -63 -47 -65 rlinecurve
            endchar
          </CharString>
          <CharString index="208">
            100 -50 callgsubr
            -64 callsubr
            return
          </CharString>
          <CharString index="209">
            rmoveto
            53 -42 118 111 130 -107 47 45 -127 144 rlineto
            -93 hlineto
            return
          </CharString>
          <CharString index="210">
            hintmask 01100000
            -29 callsubr
            378 callgsubr
            return
          </CharString>
          <CharString index="211">
            -23 18 -10 21 19 vvcurveto
            32 29 25 59 vhcurveto
            return
          </CharString>
          <CharString index="212">
            -16 callsubr
            20 rlineto
            return
          </CharString>
          <CharString index="213">
            -2 -48 5 -85 9 -56 rrcurveto
            return
          </CharString>
          <CharString index="214">
            -233 rmoveto
            58 callgsubr
            hintmask 01100000
            40 64 rlineto
            -55 hlineto
            hintmask 10100000
            -63 -73 267 callsubr
          </CharString>
          <CharString index="215">
            -164 hlineto
            -13 -2 -12 -4 -10 vhcurveto
            return
          </CharString>
          <CharString index="216">
            711 rmoveto
            64 46 45 65 67 -50 49 -64 -65 -48 -50 -64 -68 53 -44 64 hvcurveto
            -2 43 rmoveto
            -32 -28 23 34 33 25 25 34 32 25 -24 -35 -33 -23 -23 -33 hvcurveto
            endchar
          </CharString>
          <CharString index="217">
            -70 -6 -47 -55 -62 vvcurveto
            -73 63 -69 126 -73 vhcurveto
            24 callsubr
            return
          </CharString>
          <CharString index="218">
            51 callgsubr
            rlineto
            return
          </CharString>
          <CharString index="219">
            72 43 49 64 31 28 -11 -21 27 vhcurveto
            20 47 rlineto
            50 -30 -47 26 -48 hhcurveto
            -59 -61 -40 -72 -15 hvcurveto
            -12 37 rlineto
            return
          </CharString>
          <CharString index="220">
            -56 callgsubr
            194 -20 hstemhm
            28 73 return
          </CharString>
          <CharString index="221">
            -176 -14 85 349 72 0 -20 hstemhm
            17 118 hintmask 10110000
            198 callsubr
            hvcurveto
            hintmask 11010000
            59 17 57 40 46 vhcurveto
            178 callgsubr
            hintmask 10110000
            -149 101 -111 156 10 vhcurveto
            return
          </CharString>
          <CharString index="222">
            hstem
            -20 731 -73 callsubr
            return
          </CharString>
          <CharString index="223">
            hmoveto
            -97 callgsubr
            endchar
          </CharString>
          <CharString index="224">
            -187 286 callgsubr
            191 111 hintmask 01100000
            -39 596 rmoveto
            hintmask 10100000
            96 callsubr
            -26 -70 91 callgsubr
            -223 166 rlineto
            57 49 48 50 61 614 callsubr
            197 hlineto
            13 27 -38 59 rlineto
            -447 hlineto
            return
          </CharString>
          <CharString index="225">
            25 callsubr
            hintmask 01100000
            -50 callsubr
            hintmask 10100000
            -80 callsubr
            return
          </CharString>
          <CharString index="226">
            rmoveto
            116 65 70 109 31 35 -4 -15 27 vhcurveto
            13 -20 6 -32 -31 vvcurveto
            -102 -70 -72 -105 -39 -41 10 16 -29 vhcurveto
            -2 18 0 21 25 vvcurveto
            -79 -397 rmoveto
            return
          </CharString>
          <CharString index="227">
            49 -49 63 -63 71 399 185 -68 68 -68 73 hstemhm
            10 86.5 152.5 122 return
          </CharString>
          <CharString index="228">
            343 callgsubr
            -215 437 callsubr
            return
          </CharString>
          <CharString index="229">
            -117 60 110 -85 106 541 callsubr
            return
          </CharString>
          <CharString index="230">
            -58 30 -49 -81 -105 hhcurveto
            -84 -96 50 110 -67 hvcurveto
            -47 -39 return
          </CharString>
          <CharString index="231">
            68 66 -3 27 -188 100 rlineto
            146 61 64 107 88 vvcurveto
            return
          </CharString>
          <CharString index="232">
            hstemhm
            365 85 -50 90 97 109 return
          </CharString>
          <CharString index="233">
            -71 24 57 -42 73 hhcurveto
            return
          </CharString>
          <CharString index="234">
            hintmask 11001000
            197 -16 176 callsubr
            hintmask 10011000
            48 53 rlineto
            hintmask 11001000
            -3 36 rlineto
            -140 hlineto
            hintmask 10101000
            94 callgsubr
            hintmask 11001000
            -48 61 -48 51 3 vhcurveto
            return
          </CharString>
          <CharString index="235">
            190 307 rmoveto
            -99 -33 -58 57 84 vvcurveto
            31 8 35 23 25 vhcurveto
            95 46 74 -73 -78 vvcurveto
            -32 -11 -37 -32 -25 vhcurveto
            -59 -68 rmoveto
            115 103 63 107 hvcurveto
            return
          </CharString>
          <CharString index="236">
            139 callsubr
            -175 rlineto
            return
          </CharString>
          <CharString index="237">
            -249 149 callsubr
            return
          </CharString>
          <CharString index="238">
            451 rmoveto
            hintmask 11011000
            39 -63 rlineto
            88 hlineto
            -10 -28 -4 -25 -24 vvcurveto
            -120 103 -76 87 49 44 24 35 92 vhcurveto
            16 -36 -21 -62 -56 -48 98 -55 rcurveline
            120 130 -100 168 -111 hhcurveto
            -51 -83 -36 -30 -78 hvcurveto
            -36 53 19 93 40 47 rrcurveto
            266 hlineto
            13 27 -39 63 rlineto
            -482 hlineto
            endchar
          </CharString>
          <CharString index="239">
            22 -22 57 -12 41 4 rlinecurve
            200 -164 124 callsubr
            return
          </CharString>
          <CharString index="240">
            140 rmoveto
            45 45 22 37 31 hvcurveto
            63 -238 71 18 12 25 -102 294 14 34 13 50 -2 41 rlinecurve
            -119 35 -26 -31 31 -105 -30 -80 -95 -36 -53 57 rlinecurve
            -40 85 51 137 49 109 -101 41 rcurveline
            -43 -81 -32 -97 -74 vvcurveto
            -76 35 -67 50 -43 vhcurveto
            -35 39 50 -22 44 hhcurveto
            endchar
          </CharString>
          <CharString index="241">
            49 -41 hvcurveto
            141 -39 rlineto
            57 -16 15 -26 -22 vvcurveto
            -53 -84 -28 -83 19 vhcurveto
            -61 70 -38 -9 -34 -126 23 -18 51 -15 41 -4 rlinecurve
            195 -188 return
          </CharString>
          <CharString index="242">
            vlineto
            -60 callgsubr
            return
          </CharString>
          <CharString index="243">
            -87 callsubr
            586 -37 callsubr
            -41 -34 -22 -86 -14 vhcurveto
            1 vlineto
            -46 -7 -49 1 -48 10 rrcurveto
            74 -23 -75 57 -80 346 callsubr
            37 -14 24 -36 -37 vvcurveto
            -50 -43 -40 -64 -71 -54 53 94 -63 vhcurveto
            -50 -41 rlineto
            -155 97 105 -42 70 hhcurveto
            return
          </CharString>
          <CharString index="244">
            368 126 rmoveto
            48 31 24 28 27 20 -22 -31 -41 -35 -32 -49 -14 568 callsubr
            23 vvcurveto
            return
          </CharString>
          <CharString index="245">
            -87 callsubr
            191 108 callsubr
            return
          </CharString>
          <CharString index="246">
            407 callgsubr
            rrcurveto
            98 callsubr
            return
          </CharString>
          <CharString index="247">
            hstemhm
            113 530 callsubr
            return
          </CharString>
          <CharString index="248">
            -11 -26 -38 -40 vvcurveto
            return
          </CharString>
          <CharString index="249">
            674 rmoveto
            25 -36 16 callgsubr
            58 vvcurveto
            40 -26 38 -46 350 callgsubr
            -6 -38 51 -40 rcurveline
            357 callgsubr
          </CharString>
          <CharString index="250">
            -2 35 rlineto
            -108 hlineto
            -35 186 51 6 55 -20 45 -44 rlinecurve
            return
          </CharString>
          <CharString index="251">
            -143 hlineto
            -134 63 rlineto
            -120 28 -112 -75 -111 vvcurveto
            return
          </CharString>
          <CharString index="252">
            rmoveto
            64 51 -146 170 -85 -72 60 -49 51 -47 56 -53 rlinecurve
            return
          </CharString>
          <CharString index="253">
            153 callgsubr
            504 -110 rmoveto
            -12 17 -8 18 455 callgsubr
            13 52 43 52 vvcurveto
            70 -98 99 -108 vhcurveto
            -189 31 22 callsubr
            538 -316 hlineto
            -43 -90 -107 -26 -65 28 rrcurveto
            return
          </CharString>
          <CharString index="254">
            -64 11 -50 -10 -37 -21 rrcurveto
            -27 19 -13 27 26 vvcurveto
            26 13 26 28 20 vhcurveto
            return
          </CharString>
          <CharString index="255">
            719 -68 callgsubr
            return
          </CharString>
          <CharString index="256">
            15 callsubr
            532 54 -32 32 return
          </CharString>
          <CharString index="257">
            -3 -32 -17 -23 -37 -32 rrcurveto
            return
          </CharString>
          <CharString index="258">
            336 callgsubr
            170 vmoveto
            9 callgsubr
            endchar
          </CharString>
          <CharString index="259">
            68 -20 200 callgsubr
            hintmask 10101110
            return
          </CharString>
          <CharString index="260">
            rmoveto
            -35 -27 17 31 -24 hvcurveto
            -5 46 -25 47 -43 36 rrcurveto
            190 hlineto
            -69 76 -21 -108 -86 hhcurveto
            return
          </CharString>
          <CharString index="261">
            rmoveto
            -49 58 13 82 60 38 124 -195 rcurveline
            -5 -18 -18 -3 -19 hhcurveto
            -29 -38 6 19 -26 hvcurveto
            return
          </CharString>
          <CharString index="262">
            -5 41 rlineto
            -238 hlineto
            -31 -43 -6 -19 -39 hvcurveto
            return
          </CharString>
          <CharString index="263">
            -28 28 hstemhm
            53 211 callgsubr
            return
          </CharString>
          <CharString index="264">
            -228 -555 532 callsubr
            7 callsubr
            265 -12 callsubr
            -98 13 50 129 309 callsubr
            47 -121 -32 -11 -32 -12 -28 141 callgsubr
            291 -57 callgsubr
            -156 -418 -24 callsubr
            return
          </CharString>
          <CharString index="265">
            -559 -96 callgsubr
            return
          </CharString>
          <CharString index="266">
            155 callsubr
            endchar
          </CharString>
          <CharString index="267">
            7 -22 -25 4 -27 hhcurveto
            -145 -112 -109 -150 -135 91 -116 136 2 hvcurveto
            111 78 16 -41 41 -35 27 -2 rlinecurve
            return
          </CharString>
          <CharString index="268">
            24 -38 -49 13 -51 hhcurveto
            -115 -103 -68 -106 -74 50 -54 70 -25 hvcurveto
            -39 -27 -40 -37 -30 -34 19 -56 rcurveline
            23 -1 24 -1 24 -2 rrcurveto
            return
          </CharString>
          <CharString index="269">
            90 callgsubr
            hintmask 1011100110000000
            return
          </CharString>
          <CharString index="270">
            79 170 86 76 470 callsubr
            35 91 187 109 return
          </CharString>
          <CharString index="271">
            111 44 -93 182 30 22 26 33 11 27 rlinecurve
            -101 122 -78 -34 return
          </CharString>
          <CharString index="272">
            -35 callsubr
            -719 hlineto
            return
          </CharString>
          <CharString index="273">
            -67 26 -58 -72 -102 hhcurveto
            -92 -88 56 114 -71 hvcurveto
            -48 -37 return
          </CharString>
          <CharString index="274">
            hvcurveto
            -23 callgsubr
            return
          </CharString>
          <CharString index="275">
            285 callsubr
            -22 return
          </CharString>
          <CharString index="276">
            -98 74 -107 180 -117 return
          </CharString>
          <CharString index="277">
            132 360 132 return
          </CharString>
          <CharString index="278">
            -29 -76 -76 -50 -53 -1 -51 29 34 66 80 10 2 31 rcurveline
            -91 47 -38 -9 -34 -23 -18 -30 rlinecurve
            -51 13 -26 31 31 vvcurveto
            23 12 26 38 13 vhcurveto
            24 -9 26 -22 27 -24 32 41 rcurveline
            45 -43 -48 43 -58 hhcurveto
            -59 -52 -45 -63 -63 50 -63 115 -30 hvcurveto
            return
          </CharString>
          <CharString index="279">
            -272 497 callsubr
            hintmask 01100000
            -39 596 rmoveto
            hintmask 10100000
            121 callsubr
            52 24 rlineto
            379 callsubr
            168 hlineto
            256 callsubr
            -361 hlineto
            return
          </CharString>
          <CharString index="280">
            rmoveto
            -32 -33 8 16 -34 hvcurveto
            -34 28 -19 39 37 vvcurveto
            57 43 51 94 vhcurveto
            116 hlineto
            32 -35 16 -38 -35 vvcurveto
            -68 -57 -60 -92 vhcurveto
            return
          </CharString>
          <CharString index="281">
            55 callsubr
            -83 50 33 83 498 callgsubr
            return
          </CharString>
          <CharString index="282">
            365 617 callgsubr
            284 -215 -239 210 callsubr
            return
          </CharString>
          <CharString index="283">
            rmoveto
            141 69 -13 48 rlineto
            -9 -29 -35 -10 -24 hhcurveto
            -26 -9 13 38 hvcurveto
            248 93 vlineto
            return
          </CharString>
          <CharString index="284">
            -37 callsubr
            -41 -33 -21 -84 -14 vhcurveto
            42 -38 -44 7 -90 hhcurveto
            -176 hlineto
            return
          </CharString>
          <CharString index="285">
            145 callsubr
            endchar
          </CharString>
          <CharString index="286">
            38 -45 11 vhcurveto
            -36 -17 return
          </CharString>
          <CharString index="287">
            264 377 rmoveto
            48 44 -19 -40 52 hvcurveto
            21 -60 -25 -48 -45 -28 -121 193 rcurveline
            1 8 9 1 9 hhcurveto
            -101 -199 rmoveto
            -49 58 13 82 60 38 124 -196 rcurveline
            -4 -17 -19 -3 -18 hhcurveto
            -30 -38 7 18 -26 hvcurveto
            141 -106 rmoveto
            return
          </CharString>
          <CharString index="288">
            rmoveto
            -28 -36 5 17 -34 hvcurveto
            -30 29 -12 33 29 vvcurveto
            54 44 52 99 vhcurveto
            106 hlineto
            30 -28 19 -36 -36 vvcurveto
            -68 -68 -51 -90 vhcurveto
            return
          </CharString>
          <CharString index="289">
            -107 -20 118 276 118 hstem
            28 72 return
          </CharString>
          <CharString index="290">
            -29 25 -9 rrcurveto
            return
          </CharString>
          <CharString index="291">
            rmoveto
            141 -139 57 29 -78 248 -68 217 -135 15 -117 -57 rlinecurve
            46 -108 120 50 61 -29 48 -132 rlinecurve
            61 -168 414 callsubr
          </CharString>
          <CharString index="292">
            711 43 115 68 hstem
            -113 55 116 56 vstem
            4 109 callsubr
          </CharString>
          <CharString index="293">
            55 callsubr
            -79 48 29 return
          </CharString>
          <CharString index="294">
            rmoveto
            217 vlineto
            181 -231 rlineto
            -22 -25 -32 -8 -30 hhcurveto
            -42 -34 17 27 -18 hvcurveto
            return
          </CharString>
          <CharString index="295">
            401 callgsubr
            -45 -59 return
          </CharString>
          <CharString index="296">
            6 -32 rcurveline
            294 410 callgsubr
            return
          </CharString>
          <CharString index="297">
            25 35 -37 33 -17 575 callgsubr
            return
          </CharString>
          <CharString index="298">
            32 callsubr
            96 return
          </CharString>
          <CharString index="299">
            -126 -64 -69 -80 -118 140 -80 110 67 70 30 62 45 hvcurveto
            -63 77 -58 -71 -113 -29 -76 32 rlinecurve
            -25 20 -7 27 18 vvcurveto
            48 44 36 75 vhcurveto
            135 140 hlineto
            -41 32 49 14 46 30 37 48 rlinecurve
            -70 87 rlineto
            return
          </CharString>
          <CharString index="300">
            719 62 callsubr
            return
          </CharString>
          <CharString index="301">
            174 476 rmoveto
            79 81 39 48 -51 vhcurveto
            17 -43 -30 -69 -71 -49 rrcurveto
            -30 27 -15 33 34 vvcurveto
            -161 -227 rmoveto
            return
          </CharString>
          <CharString index="302">
            254 260 callsubr
            164 hlineto
            256 callsubr
            -605 hlineto
            endchar
          </CharString>
          <CharString index="303">
            163 1 hlineto
            1 -1 rlineto
            return
          </CharString>
          <CharString index="304">
            72 52 58 43 71 hhcurveto
            35 hlineto
            -7 -16 -4 -18 -18 vvcurveto
            -58 40 -50 50 -35 vhcurveto
            -29 40 55 -25 57 hhcurveto
            38 35 11 22 32 hvcurveto
            -112 -65 callsubr
            return
          </CharString>
          <CharString index="305">
            274 -14 rmoveto
            139 64 -19 47 rlineto
            -17 -37 -38 -9 -31 hhcurveto
            -99 -54 80 107 return
          </CharString>
          <CharString index="306">
            -48 126 callgsubr
            32 -56 callgsubr
            return
          </CharString>
          <CharString index="307">
            223 430 callsubr
            return
          </CharString>
          <CharString index="308">
            1 rmoveto
            74 60 47 73 45 hvcurveto
            -73 74 rlineto
            -63 -41 -51 -36 -52 hhcurveto
            -49 -45 33 58 30 13 32 52 66 hvcurveto
            168 211 -66 90 -184 -232 rlineto
            -55 -68 -18 -57 -41 vvcurveto
            -100 104 -117 118 vhcurveto
            endchar
          </CharString>
          <CharString index="309">
            126 -84 rmoveto
            28 32 33 43 31 vhcurveto
            99 -12 90 -21 47 -24 rrcurveto
            -60 -35 -90 -31 -75 hhcurveto
            -63 -48 20 36 hvcurveto
            return
          </CharString>
          <CharString index="310">
            114 callgsubr
            -35 639 callgsubr
            return
          </CharString>
          <CharString index="311">
            113 122 return
          </CharString>
          <CharString index="312">
            5 rmoveto
            69 -41 37 callsubr
            422 vlineto
            124 -83 125 -114 -82 -62 -62 -77 -79 66 -71 125 -51 vhcurveto
            25 58 rlineto
            -67 29 -42 36 52 vvcurveto
            61 55 34 50 -24 vhcurveto
            20 -22 8 -44 -43 vvcurveto
            endchar
          </CharString>
          <CharString index="313">
            rlineto
            43 42 27 32 60 vvcurveto
            125 vlineto
            -51 40 rlineto
            364 -133 hlineto
            -94 53 rlineto
            -103 22 -81 -79 -85 vvcurveto
            return
          </CharString>
          <CharString index="314">
            100 0 239 callsubr
            return
          </CharString>
          <CharString index="315">
            rmoveto
            17 19 3 9 20 hvcurveto
            226 callgsubr
            return
          </CharString>
          <CharString index="316">
            vlineto
            -45 40 437 callgsubr
            return
          </CharString>
          <CharString index="317">
            hlineto
            191 callgsubr
            return
          </CharString>
          <CharString index="318">
            113 -94 callgsubr
            return
          </CharString>
          <CharString index="319">
            -22 -37 -33 rrcurveto
            return
          </CharString>
          <CharString index="320">
            rmoveto
            156 74 134 callgsubr
            -139 101 -112 164 8 hvcurveto
            return
          </CharString>
          <CharString index="321">
            -69 27 -69 -51 -81 hhcurveto
            -91 -73 62 89 -58 hvcurveto
            -43 -37 rlineto
            -149 97 105 -55 98 hhcurveto
            108 68 67 76 64 -46 76 -94 22 hvcurveto
            -164 -46 rlineto
            -18 13 -9 17 17 vvcurveto
            24 17 24 31 10 vhcurveto
            return
          </CharString>
          <CharString index="322">
            225 vlineto
            62 52 49 35 41 hhcurveto
            26 13 -12 -16 16 hvcurveto
            -1 vlineto
            243 callsubr
            return
          </CharString>
          <CharString index="323">
            150 callsubr
            endchar
          </CharString>
          <CharString index="324">
            rmoveto
            79 59 54 74 76 -63 74 -80 -44 -41 -23 -43 -27 hvcurveto
            66 -68 75 75 rlineto
            22 -11 14 -22 -24 vvcurveto
            -38 -32 -40 -57 -69 -70 59 96 -90 vhcurveto
            -41 -43 rlineto
            -121 102 104 -75 93 hhcurveto
            endchar
          </CharString>
          <CharString index="325">
            86 callsubr
            20 23 -6 -13 21 vhcurveto
            -14 return
          </CharString>
          <CharString index="326">
            81 -81 32 callsubr
            404.5 78 -15 -20 21 -20 hstemhm
            return
          </CharString>
          <CharString index="327">
            89 -87.5 212.5 -161 36 hstemhm
            85 117 return
          </CharString>
          <CharString index="328">
            281 callsubr
            -49 -54 -25 -48 -54 hvcurveto
            return
          </CharString>
          <CharString index="329">
            20 callsubr
            endchar
          </CharString>
          <CharString index="330">
            106.5 200.5 109 return
          </CharString>
          <CharString index="331">
            170 0 189 callgsubr
            return
          </CharString>
          <CharString index="332">
            -38 -29 -21 -72 -14 vhcurveto
            36 -59 -55 18 -64 hhcurveto
            return
          </CharString>
          <CharString index="333">
            -58 -53 callgsubr
            return
          </CharString>
          <CharString index="334">
            47 -72 rlineto
            109 41 28 47 138 vvcurveto
            139 vlineto
            -51 403 callgsubr
            return
          </CharString>
          <CharString index="335">
            -87 callsubr
            401 -72 -140 hlineto
            -119 -50 -59 -61 -83 92 -93 114 -24 hvcurveto
            157 51 rlineto
            return
          </CharString>
          <CharString index="336">
            64 callgsubr
            hstemhm
            return
          </CharString>
          <CharString index="337">
            -25 -8 -28 -10 -19 -10 rrcurveto
            return
          </CharString>
          <CharString index="338">
            -46 -58 -74 -28 -57 return
          </CharString>
          <CharString index="339">
            -86 -94 callgsubr
            return
          </CharString>
          <CharString index="340">
            63 52 49 43 42 520 callsubr
            6 -8 47 45 rlineto
            57 -26 -55 42 -59 -34 callgsubr
            253 hlineto
            256 callsubr
            -634 hlineto
            return
          </CharString>
          <CharString index="341">
            -75 callgsubr
            endchar
          </CharString>
          <CharString index="342">
            181 475 rmoveto
            74 76 41 58 -44 vhcurveto
            16 -47 -16 -61 -85 -52 rrcurveto
            -31 24 -18 30 35 vvcurveto
            return
          </CharString>
          <CharString index="343">
            rmoveto
            47 43 -17 -38 50 hvcurveto
            20 -60 -23 -49 -43 -29 -119 191 rcurveline
            1 8 8 1 9 hhcurveto
            return
          </CharString>
          <CharString index="344">
            37 -56 rlineto
            102 hlineto
            -12 -19 -6 -23 361 callgsubr
            return
          </CharString>
          <CharString index="345">
            170 0 297 callsubr
            return
          </CharString>
          <CharString index="346">
            -64 callsubr
            399 -20 21 -20 hstemhm
            return
          </CharString>
          <CharString index="347">
            -87 callsubr
            332 279 callsubr
            return
          </CharString>
          <CharString index="348">
            603 105 callsubr
            return
          </CharString>
          <CharString index="349">
            47 -67 callsubr
            return
          </CharString>
          <CharString index="350">
            91 callgsubr
            rlineto
            return
          </CharString>
          <CharString index="351">
            -94 callgsubr
            327 return
          </CharString>
          <CharString index="352">
            225 297 vlineto
            return
          </CharString>
          <CharString index="353">
            -228 490 callgsubr
            -183 362 hintmask 10100000
            -183 -174 425 callgsubr
            309 hlineto
            hintmask 01100000
            47 38 rlineto
            hintmask 10100000
            -5 41 rlineto
            -244 hlineto
            -31 -43 -6 -19 -39 hvcurveto
            endchar
          </CharString>
          <CharString index="354">
            -753 -55 callsubr
            hintmask 1001001000110000
            -59 callgsubr
            hintmask 0111001000110000
            127 callgsubr
            hintmask 0111001001110000
            return
          </CharString>
          <CharString index="355">
            -25 vlineto
            -39 -45 -60 -21 -74 hhcurveto
            -90 -104 40 91 -58 hvcurveto
            48 50 206 callsubr
            return
          </CharString>
          <CharString index="356">
            -106 callsubr
            -637 hlineto
            return
          </CharString>
          <CharString index="357">
            219 callgsubr
            -42 -15 -51 51 rcurveline
            return
          </CharString>
          <CharString index="358">
            -106 callsubr
            -670 hlineto
            return
          </CharString>
          <CharString index="359">
            97 447 callgsubr
            46 92 217 100 -34 93 return
          </CharString>
          <CharString index="360">
            473 callgsubr
            -21 331 callgsubr
            return
          </CharString>
          <CharString index="361">
            rlineto
            119 2 -92 69 -102 hhcurveto
            return
          </CharString>
          <CharString index="362">
            101 301 callgsubr
            return
          </CharString>
          <CharString index="363">
            13 27 -39 59 rlineto
            return
          </CharString>
          <CharString index="364">
            -93 callgsubr
            6 -20 hstemhm
            return
          </CharString>
          <CharString index="365">
            99 313 487 callsubr
            92 94 535 callsubr
            return
          </CharString>
          <CharString index="366">
            -145 hlineto
            -142 69 rlineto
            -123 28 -109 -77 -111 vvcurveto
            return
          </CharString>
          <CharString index="367">
            125 22 callsubr
            return
          </CharString>
          <CharString index="368">
            -200 55 89 -150 return
          </CharString>
          <CharString index="369">
            268 callgsubr
            hintmask 11011000
            return
          </CharString>
          <CharString index="370">
            -87 callgsubr
            hintmask 0111010000110000
            -78 callgsubr
            return
          </CharString>
          <CharString index="371">
            -105 callgsubr
            -641 hlineto
            return
          </CharString>
          <CharString index="372">
            -104 79 -82 107 vhcurveto
            return
          </CharString>
          <CharString index="373">
            466 callgsubr
            hintmask 1111101010000000
            417 callgsubr
            201 hlineto
            13 27 -39 59 rlineto
            -584 hlineto
            endchar
          </CharString>
          <CharString index="374">
            150 callgsubr
            endchar
          </CharString>
          <CharString index="375">
            hstem
            112 98 vstem
            44 -102 rmoveto
            34 -43 rlineto
            79 41 53 75 65 vvcurveto
            47 -29 40 -51 17 vhcurveto
            -36 -18 -27 -30 -7 -43 52 -42 rcurveline
            -2 -35 -24 -39 -42 -35 rrcurveto
            return
          </CharString>
          <CharString index="376">
            -87 callgsubr
            hintmask 10100110
            -78 callgsubr
            return
          </CharString>
          <CharString index="377">
            rmoveto
            227 vlineto
            181 -238 rlineto
            -21 -29 -35 -12 -32 hhcurveto
            -34 -33 14 30 -18 hvcurveto
            return
          </CharString>
          <CharString index="378">
            rmoveto
            62 53 45 92 48 hvcurveto
            1 hlineto
            -81 9 36 -56 48 hhcurveto
            37 47 44 50 16 hvcurveto
            return
          </CharString>
          <CharString index="379">
            408 callsubr
            -98 120 -107 151 177 134 147 162 vhcurveto
            return
          </CharString>
          <CharString index="380">
            -87 callsubr
            284 406 callsubr
            return
          </CharString>
          <CharString index="381">
            77 -77 219 161 rlineto
            -193 vlineto
            -71 callgsubr
            return
          </CharString>
          <CharString index="382">
            -291 0 48 -48 63 -63 72 582 82 409 callsubr
            return
          </CharString>
          <CharString index="383">
            rmoveto
            -20 19 -11 25 26 vvcurveto
            84 106 18 54 14 vhcurveto
            15 4 return
          </CharString>
          <CharString index="384">
            rmoveto
            -28 -4 -23 -7 -19 vhcurveto
            -177 222 rlineto
            188 hlineto
            return
          </CharString>
          <CharString index="385">
            130 callsubr
            5 -20 return
          </CharString>
          <CharString index="386">
            -140 hlineto
            -99 419 callsubr
            return
          </CharString>
          <CharString index="387">
            483 callgsubr
            639 callsubr
            return
          </CharString>
          <CharString index="388">
            -222 hlineto
            -76 77 rlineto
            43 -45 -47 29 -52 hhcurveto
            return
          </CharString>
          <CharString index="389">
            -113 -83 446 callsubr
            -87 return
          </CharString>
          <CharString index="390">
            -136 58 118 -95 114 hhcurveto
            return
          </CharString>
          <CharString index="391">
            -148 -14 102 297 107 return
          </CharString>
          <CharString index="392">
            110 189 -1 23 return
          </CharString>
          <CharString index="393">
            vvcurveto
            33 28 24 69 vhcurveto
            return
          </CharString>
          <CharString index="394">
            -20 37 -11 rrcurveto
            return
          </CharString>
          <CharString index="395">
            166 callsubr
            47 -71 47 -52 47 -36 rlinecurve
            -27 -21 -13 -29 -30 vvcurveto
            -71 79 -81 102 -23 vhcurveto
            149 47 rlineto
            return
          </CharString>
          <CharString index="396">
            -36 -31 -5 -10 -25 hvcurveto
            -28 22 -13 21 19 vvcurveto
            28 24 26 67 vhcurveto
            236 127 22 callsubr
            165 hlineto
            13 27 -41 59 rlineto
            -578 hlineto
            endchar
          </CharString>
          <CharString index="397">
            136 132 349 callsubr
            return
          </CharString>
          <CharString index="398">
            227 329 callsubr
            return
          </CharString>
          <CharString index="399">
            77 -84 rlineto
            -14 26 27 -8 31 hhcurveto
            96 78 79 117 109 -66 89 -72 36 hvcurveto
            82 -98 callgsubr
            245 hlineto
            256 callsubr
            -767 hlineto
            return
          </CharString>
          <CharString index="400">
            94 149 72 60 104 104 417 callsubr
            return
          </CharString>
          <CharString index="401">
            476 callsubr
            hlineto
            endchar
          </CharString>
          <CharString index="402">
            16 -89 -45 -27 -63 -9 72 callsubr
            198 hlineto
            256 callsubr
            return
          </CharString>
          <CharString index="403">
            90 -83 83 -27 27 101 -94 callgsubr
            121 108 return
          </CharString>
          <CharString index="404">
            189 callgsubr
            5 -20 21 -20 hstemhm
            return
          </CharString>
          <CharString index="405">
            16 -41 rlineto
            218 hlineto
            13 78 -149 -25 -3 7 rlineto
            return
          </CharString>
          <CharString index="406">
            86 callsubr
            21 23 -6 return
          </CharString>
          <CharString index="407">
            -71 -203 -21 36 -21 return
          </CharString>
          <CharString index="408">
            440 callsubr
            72 88 -65 92 -42 84 176 99 -89 89 -47 90 hintmask 1111000101000000
            355 -11 rmoveto
            21 21 2 5 18 hvcurveto
            return
          </CharString>
          <CharString index="409">
            -56 callsubr
            -58 return
          </CharString>
          <CharString index="410">
            -23 23 -17 32 -11 33 320 callsubr
            return
          </CharString>
          <CharString index="411">
            178 167 22 callsubr
            191 hlineto
            256 callsubr
            -607 hlineto
            return
          </CharString>
          <CharString index="412">
            -23 13 -35 8 -33 6 rrcurveto
            306 65 vlineto
            return
          </CharString>
          <CharString index="413">
            486 callsubr
            232 callsubr
            return
          </CharString>
          <CharString index="414">
            hlineto
            -31 -43 -5 -20 -39 hvcurveto
            return
          </CharString>
          <CharString index="415">
            95 115 94 87 109 return
          </CharString>
          <CharString index="416">
            rlineto
            254 hlineto
            return
          </CharString>
          <CharString index="417">
            65 -151 84 -56 80 32 96 -71 -21 384 287 callgsubr
            71 87 -63 92 119 91 8 99 -47 90 -5 76 hintmask 0110110101010000
            return
          </CharString>
          <CharString index="418">
            125 3 61 77 59 hhcurveto
            42 30 -39 -48 -59 -45 -95 -124 -89 hvcurveto
            81 -71 rlineto
            131 92 50 103 82 vvcurveto
            86 -55 73 -69 27 vhcurveto
            return
          </CharString>
          <CharString index="419">
            798 -103 callgsubr
            return
          </CharString>
          <CharString index="420">
            231 callgsubr
            vhcurveto
            endchar
          </CharString>
          <CharString index="421">
            233 callgsubr
            290 hlineto
            236 104 165 167 163 -113 167 -199 -103 -102 -3 -5 -104 hvcurveto
            -1 -50 71 -7 rlineto
            return
          </CharString>
          <CharString index="422">
            434 callsubr
            -50 -42 -27 -39 -16 hvcurveto
            -28 43 rlineto
            -342 hlineto
            return
          </CharString>
          <CharString index="423">
            239 callgsubr
            hstemhm
            return
          </CharString>
          <CharString index="424">
            hhcurveto
            -45 -51 -17 -45 -44 hvcurveto
            72 -93 100 83 rlineto
            45 -13 28 -41 -45 vvcurveto
            return
          </CharString>
          <CharString index="425">
            -25 -26 -12 -33 -31 416 callsubr
            return
          </CharString>
          <CharString index="426">
            563 356 callsubr
            return
          </CharString>
          <CharString index="427">
            rrcurveto
            99 19 51 242 callsubr
            return
          </CharString>
          <CharString index="428">
            -87 callsubr
            365 -104 -95 hlineto
            -158 -69 -97 -95 return
          </CharString>
          <CharString index="429">
            6 -3 6 -4 6 -2 rrcurveto
            -45 -23 -31 -42 -49 vvcurveto
            return
          </CharString>
          <CharString index="430">
            -87 callsubr
            61 -152 hlineto
            -69 44 -67 57 -46 vhcurveto
            return
          </CharString>
          <CharString index="431">
            -24 -8 -26 -10 -18 -9 4 -34 rcurveline
            return
          </CharString>
          <CharString index="432">
            -82 -71 -56 -95 -82 88 -99 129 return
          </CharString>
          <CharString index="433">
            -205 -21 194 96 -64 -21 return
          </CharString>
          <CharString index="434">
            -94 callgsubr
            188 111 return
          </CharString>
          <CharString index="435">
            21 -4 22 -8 22 vhcurveto
            return
          </CharString>
          <CharString index="436">
            133 22 callsubr
            return
          </CharString>
          <CharString index="437">
            -20 80 536 78 return
          </CharString>
          <CharString index="438">
            -23 23 -17 33 -11 return
          </CharString>
          <CharString index="439">
            28 22 25 32 10 25 rlinecurve
            -101 123 -78 -34 17 -92 -47 -27 -64 -7 -55 21 rlinecurve
            -39 27 -20 41 41 vvcurveto
            50 41 62 96 vhcurveto
            return
          </CharString>
          <CharString index="440">
            36 -14 22 -36 -37 vvcurveto
            -50 -41 -40 -60 -66 -57 47 100 -66 vhcurveto
            -52 -41 rlineto
            -155 97 105 -41 70 hhcurveto
            78 67 49 72 15 hvcurveto
            return
          </CharString>
          <CharString index="441">
            hlineto
            256 callsubr
            -636 hlineto
            endchar
          </CharString>
          <CharString index="442">
            342 34 106 -106 111 -111 379 -96 96 -58 58 125 -94 callgsubr
            586 95 -95 278 -109 109 return
          </CharString>
          <CharString index="443">
            89 127 vvcurveto
            hintmask 0001010100000000
            72 -49 72 -74 27 vhcurveto
            76 -98 callgsubr
            256 hlineto
            13 27 -38 59 rlineto
            -749 hlineto
            endchar
          </CharString>
          <CharString index="444">
            rmoveto
            59 -51 57 51 59 51 59 47 rlinecurve
            -87 61 rlineto
            43 -163 rmoveto
            58 -51 57 51 59 50 59 47 rlinecurve
            -86 62 rlineto
            endchar
          </CharString>
          <CharString index="445">
            299 callsubr
            -14 22 vhcurveto
            return
          </CharString>
          <CharString index="446">
            170 -50 callgsubr
            364 -78 78 return
          </CharString>
          <CharString index="447">
            527 callgsubr
            97 97 106 return
          </CharString>
          <CharString index="448">
            13 113 146 8 rlineto
            -520 vlineto
            return
          </CharString>
          <CharString index="449">
            -18 11 -26 8 -27 5 rrcurveto
            return
          </CharString>
          <CharString index="450">
            425 callgsubr
            303 hlineto
            return
          </CharString>
          <CharString index="451">
            -10 -15 29 hvcurveto
            return
          </CharString>
          <CharString index="452">
            630 208 rmoveto
            25 18 28 34 10 29 -16 21 -34 31 -29 12 -24 -15 -26 -34 -16 -32 18 -24 38 -29 26 -11 rrcurveto
            return
          </CharString>
          <CharString index="453">
            hhcurveto
            -41 -48 -15 -38 -39 hvcurveto
            64 -80 98 70 rlineto
            return
          </CharString>
          <CharString index="454">
            80 -71 105 -106 -83 -58 -63 -73 -57 35 -53 54 return
          </CharString>
          <CharString index="455">
            rlinecurve
            -42 29 -17 43 536 callgsubr
            62 96 vhcurveto
            return
          </CharString>
          <CharString index="456">
            386 callsubr
            109 return
          </CharString>
          <CharString index="457">
            46 -18 62 -44 44 vhcurveto
            return
          </CharString>
          <CharString index="458">
            -21 57 87 72 72 60 104 -66 100 70 417 callsubr
            247 429 callsubr
            return
          </CharString>
          <CharString index="459">
            hlineto
            hintmask 11010010
            -305 hlineto
            hintmask 10110010
            -58 vlineto
            85 -36 rlineto
            -71 78 -23 return
          </CharString>
          <CharString index="460">
            449 callsubr
            165 406 callsubr
            return
          </CharString>
          <CharString index="461">
            rmoveto
            66 -44 149 185 rlineto
            53 vlineto
            -144 187 -65 -38 return
          </CharString>
          <CharString index="462">
            277 callgsubr
            hstemhm
            return
          </CharString>
          <CharString index="463">
            rmoveto
            44 -19 168 callsubr
            18 -35 16 -35 -1 rlinecurve
            return
          </CharString>
          <CharString index="464">
            hlineto
            3 -36 24 -42 78 -51 36 36 rcurveline
            -52 callsubr
            return
          </CharString>
          <CharString index="465">
            rmoveto
            28 20 29 35 13 32 -19 27 -35 32 -33 15 -28 -19 -28 -36 -18 -36 21 -27 38 -30 32 -13 rrcurveto
            endchar
          </CharString>
          <CharString index="466">
            17 rlinecurve
            -45 141 callsubr
            return
          </CharString>
          <CharString index="467">
            vlineto
            285 callgsubr
            return
          </CharString>
          <CharString index="468">
            54 308 callgsubr
            return
          </CharString>
          <CharString index="469">
            -223 166 15 13 15 13 13 14 rlinecurve
            172 hlineto
            34 21 -2 -8 18 hvcurveto
            33 -57 66 -63 49 -24 rrcurveto
            return
          </CharString>
          <CharString index="470">
            rmoveto
            77 -65 44 121 122 hhcurveto
            47 37 -18 -38 48 hvcurveto
            -90 34 -91 -76 -89 hhcurveto
            -24 -37 5 19 -26 hvcurveto
            return
          </CharString>
          <CharString index="471">
            rmoveto
            70 45 -77 -85 -68 -28 -71 -49 -33 hvcurveto
            -57 -9 -46 13 -33 19 rrcurveto
            276 vlineto
            20 34 33 15 31 hhcurveto
            return
          </CharString>
          <CharString index="472">
            -98 callgsubr
            244 hlineto
            256 callsubr
            -625 hlineto
            return
          </CharString>
          <CharString index="473">
            435 callsubr
            -843 hlineto
            return
          </CharString>
          <CharString index="474">
            94 30 25 8 14 23 vhcurveto
            -23 callgsubr
            return
          </CharString>
          <CharString index="475">
            rmoveto
            394 callgsubr
            return
          </CharString>
          <CharString index="476">
            409 callgsubr
            -15 -20 21 -20 hstemhm
            return
          </CharString>
          <CharString index="477">
            -40 38 46 -23 51 hhcurveto
            79 64 54 81 hvcurveto
            return
          </CharString>
          <CharString index="478">
            -60 vlineto
            45 -34 420 callgsubr
            return
          </CharString>
          <CharString index="479">
            15 20 rlineto
            30 vlineto
            -56 -1 637 callgsubr
            return
          </CharString>
          <CharString index="480">
            -29 callsubr
            528 callgsubr
            return
          </CharString>
          <CharString index="481">
            52 47 rlineto
            -94 91 -27 50 46 vvcurveto
            return
          </CharString>
          <CharString index="482">
            -145 171 -112 125 21 return
          </CharString>
          <CharString index="483">
            157 callgsubr
            -48 return
          </CharString>
          <CharString index="484">
            425 callgsubr
            347 hlineto
            return
          </CharString>
          <CharString index="485">
            100 309 callgsubr
            return
          </CharString>
          <CharString index="486">
            355 -98 callgsubr
            return
          </CharString>
          <CharString index="487">
            40 -6 38 -18 28 return
          </CharString>
          <CharString index="488">
            163 118 66 134 98 -52 533 callgsubr
            38 105 196 109 203 89 hintmask 10110111
            return
          </CharString>
          <CharString index="489">
            72 -59 259 172 56 -218 107 43 -106 205 30 22 30 30 10 26 rlinecurve
            -101 122 -78 -34 return
          </CharString>
          <CharString index="490">
            183 -50 callgsubr
            81 -81 32 callsubr
            404.5 78 return
          </CharString>
          <CharString index="491">
            85 11 101 63 90 -83 83 -56 100 -71 27 -24 628 callsubr
            121 108 return
          </CharString>
          <CharString index="492">
            -464 673 -20 hstem
            -223 630 vstem
            -223 68 406 callgsubr
            endchar
          </CharString>
          <CharString index="493">
            rmoveto
            54 23 rlineto
            return
          </CharString>
          <CharString index="494">
            rmoveto
            4 -34 rlineto
            return
          </CharString>
          <CharString index="495">
            250 callsubr
            -38 -9 return
          </CharString>
          <CharString index="496">
            -39 -38 -6 -12 -32 hvcurveto
            -21 16 -10 16 19 286 callsubr
            212 260 callsubr
            return
          </CharString>
          <CharString index="497">
            81 callgsubr
            -321 vlineto
            324 callsubr
            return
          </CharString>
          <CharString index="498">
            174 412 callgsubr
            return
          </CharString>
          <CharString index="499">
            -91 vlineto
            -71 callgsubr
            551 502 callgsubr
            return
          </CharString>
          <CharString index="500">
            -55 -44 -53 -77 -91 -67 75 117 -74 vhcurveto
            -53 -38 rlineto
            return
          </CharString>
          <CharString index="501">
            -45 41 437 callgsubr
            return
          </CharString>
          <CharString index="502">
            -233 -68 callsubr
            rlineto
            return
          </CharString>
          <CharString index="503">
            -87 callsubr
            159 hlineto
            256 callsubr
            -159 hlineto
            return
          </CharString>
          <CharString index="504">
            rmoveto
            76 -59 31 12 rlineto
            627 vlineto
            -75 59 -32 -12 rlineto
            return
          </CharString>
          <CharString index="505">
            -60 41 -52 73 -51 return
          </CharString>
          <CharString index="506">
            vvcurveto
            56 42 31 49 22 23 -7 537 callsubr
            -62 -71 return
          </CharString>
          <CharString index="507">
            439 callgsubr
            endchar
          </CharString>
          <CharString index="508">
            183 418 callsubr
            return
          </CharString>
          <CharString index="509">
            rmoveto
            283 callsubr
            return
          </CharString>
          <CharString index="510">
            vlineto
            -82 callgsubr
            return
          </CharString>
          <CharString index="511">
            70 62 36 66 31 35 -8 -18 34 vhcurveto
            return
          </CharString>
          <CharString index="512">
            -20 43 rlineto
            -89 -50 -51 30 50 vvcurveto
            50 return
          </CharString>
          <CharString index="513">
            hlineto
            3 -38 26 -46 79 -50 36 39 rcurveline
            return
          </CharString>
          <CharString index="514">
            86 -60 83 -51 28 hstemhm
            return
          </CharString>
          <CharString index="515">
            -12 -18 -6 -22 -22 vvcurveto
            return
          </CharString>
          <CharString index="516">
            hstemhm
            97 117 return
          </CharString>
          <CharString index="517">
            22 420 callsubr
            180 77 72 86 563 callsubr
            hintmask 01111011
            return
          </CharString>
          <CharString index="518">
            vlineto
            -71 callgsubr
            529 366 callsubr
            return
          </CharString>
          <CharString index="519">
            -106 callsubr
            -677 hlineto
            return
          </CharString>
          <CharString index="520">
            -87 callsubr
            170 hlineto
            9 -217 -109 -14 -106 6 -81 23 rlinecurve
            44 37 23 43 46 vvcurveto
            return
          </CharString>
          <CharString index="521">
            -113 131 -100 115 -96 1 -94 -72 rlinecurve
            56 -96 87 55 60 2 64 -62 rlinecurve
            endchar
          </CharString>
          <CharString index="522">
            422 callsubr
            444 callsubr
            return
          </CharString>
          <CharString index="523">
            vvcurveto
            -60 46 -53 47 -34 vhcurveto
            -29 41 52 -22 51 hhcurveto
            return
          </CharString>
          <CharString index="524">
            -94 callgsubr
            43 102 125 98 -3 103 6 73 return
          </CharString>
          <CharString index="525">
            0 81 -81 32 callsubr
            return
          </CharString>
          <CharString index="526">
            49 rlineto
            -102 28 -102 -72 -102 vvcurveto
            return
          </CharString>
          <CharString index="527">
            -30 93 -52 -21 144 75 return
          </CharString>
          <CharString index="528">
            vvcurveto
            -57 49 -55 80 6 vhcurveto
            return
          </CharString>
          <CharString index="529">
            hhcurveto
            -34 -31 14 30 -18 hvcurveto
            return
          </CharString>
          <CharString index="530">
            hintmask 11101100
            -87 callsubr
            return
          </CharString>
          <CharString index="531">
            37 36 11 21 31 return
          </CharString>
          <CharString index="532">
            158 -47 hvcurveto
            return
          </CharString>
          <CharString index="533">
            -87 callgsubr
            hintmask 1010000011000000
            -78 callgsubr
            return
          </CharString>
          <CharString index="534">
            367 340 rmoveto
            -71 hlineto
            2 8 1 8 9 614 callsubr
            316 hlineto
            return
          </CharString>
          <CharString index="535">
            rcurveline
            80 callsubr
            43 57 rlineto
            return
          </CharString>
          <CharString index="536">
            100 91 109 return
          </CharString>
          <CharString index="537">
            -9 rlineto
            94 vlineto
            return
          </CharString>
          <CharString index="538" raw="1">
            341d13ac 3d1d0b  
          </CharString>
          <CharString index="539">
            287 callgsubr
            95 92 -6.5 85.5 139 99 return
          </CharString>
          <CharString index="540">
            77 -25 64 98 21 125 -2 16 rlinecurve
            -85 18 -33 -29 -1 -37 -7 -75 -34 -91 rlinecurve
            return
          </CharString>
          <CharString index="541">
            331 callsubr
            33 509 callsubr
            return
          </CharString>
          <CharString index="542">
            -98 callgsubr
            162 hlineto
            13 27 -38 59 rlineto
            return
          </CharString>
          <CharString index="543">
            61 51 51 42 41 520 callsubr
            return
          </CharString>
          <CharString index="544">
            rlineto
            -72 97 callsubr
            return
          </CharString>
          <CharString index="545">
            hlineto
            -4 0 -3 -4 vvcurveto
            398 callsubr
            vhcurveto
            return
          </CharString>
          <CharString index="546">
            255 callsubr
            40 108 -35 102 return
          </CharString>
          <CharString index="547">
            96 485 callsubr
            return
          </CharString>
          <CharString index="548">
            vhcurveto
            226 callgsubr
            return
          </CharString>
          <CharString index="549">
            -124 30 -118 -78 -115 vvcurveto
            return
          </CharString>
          <CharString index="550">
            79 398 callgsubr
            return
          </CharString>
          <CharString index="551">
            231 -98 callgsubr
            return
          </CharString>
          <CharString index="552">
            -198 -21 184 82 return
          </CharString>
          <CharString index="553">
            hlineto
            -153 -63 -90 return
          </CharString>
          <CharString index="554">
            -94 callgsubr
            22 return
          </CharString>
          <CharString index="555">
            -87 callsubr
            344 return
          </CharString>
          <CharString index="556">
            rmoveto
            -88 callgsubr
            return
          </CharString>
          <CharString index="557">
            -87 callsubr
            367 -69 -159 hlineto
            -128 -33 -59 -48 -49 35 -47 50 -38 hvcurveto
            return
          </CharString>
          <CharString index="558">
            vlineto
            -71 callgsubr
            549 -98 callgsubr
            162 hlineto
            256 callsubr
            return
          </CharString>
          <CharString index="559">
            -87 callsubr
            90 -194 hlineto
            -81 -16 -69 0 -55 10 rrcurveto
            43 36 22 43 45 vvcurveto
            return
          </CharString>
          <CharString index="560">
            110 119 rmoveto
            274 callsubr
            return
          </CharString>
          <CharString index="561">
            226 callsubr
            endchar
          </CharString>
          <CharString index="562">
            229 callsubr
            412 75 hintmask 01111000
            return
          </CharString>
          <CharString index="563">
            93 -93 356.5 -345.5 93 245 87 hintmask 0001100110000000
            return
          </CharString>
          <CharString index="564">
            -37 callsubr
            225 callsubr
            return
          </CharString>
          <CharString index="565">
            118 -99 115 541 callsubr
            return
          </CharString>
          <CharString index="566">
            rlineto
            80 callsubr
            return
          </CharString>
          <CharString index="567">
            -8 -23 87 236 104 134 598 callgsubr
            return
          </CharString>
          <CharString index="568">
            -23 14 -34 9 -32 5 rrcurveto
            305 63 vlineto
            return
          </CharString>
          <CharString index="569">
            -86 570 callgsubr
            246 callgsubr
            return
          </CharString>
          <CharString index="570">
            rlinecurve
            341 callgsubr
            return
          </CharString>
          <CharString index="571">
            -26 -31 -7 -43 17 -36 29 -24 40 -9 rrcurveto
            return
          </CharString>
          <CharString index="572">
            286 71 callgsubr
            return
          </CharString>
          <CharString index="573">
            55 41 48 89 vhcurveto
            158 536 callsubr
            return
          </CharString>
          <CharString index="574">
            -54 533 callgsubr
            return
          </CharString>
          <CharString index="575">
            286 callgsubr
            -39 return
          </CharString>
          <CharString index="576">
            -51 -81 -118 -39 -63 31 return
          </CharString>
          <CharString index="577">
            -94 callgsubr
            204 106 return
          </CharString>
          <CharString index="578">
            -188 -134 rcurveline
            79 -64 return
          </CharString>
          <CharString index="579">
            -65 -79 -127 -33 -85 37 return
          </CharString>
          <CharString index="580">
            109 178 96 return
          </CharString>
          <CharString index="581">
            54 41 61 96 vhcurveto
            return
          </CharString>
          <CharString index="582">
            -112 -245 rmoveto
            return
          </CharString>
          <CharString index="583">
            -87 callsubr
            82 return
          </CharString>
          <CharString index="584">
            563 -75 callgsubr
            return
          </CharString>
          <CharString index="585">
            83 554 368 callsubr
            return
          </CharString>
          <CharString index="586">
            254 107 475 callgsubr
            157 -215 vlineto
            -71 callgsubr
            return
          </CharString>
          <CharString index="587">
            rmoveto
            58 -22 110 199 -1 23 -24 21 -42 17 -40 -1 rlinecurve
            endchar
          </CharString>
          <CharString index="588">
            91 73 529 callgsubr
            return
          </CharString>
          <CharString index="589">
            138 -87 119 -135 -27 return
          </CharString>
          <CharString index="590">
            rlinecurve
            98 callsubr
            return
          </CharString>
          <CharString index="591">
            -2 35 rlineto
            -106 hlineto
            -30 176 return
          </CharString>
          <CharString index="592">
            292 287 callgsubr
            return
          </CharString>
          <CharString index="593">
            -260 89 -89 260 return
          </CharString>
          <CharString index="594">
            102 449 callgsubr
            return
          </CharString>
          <CharString index="595">
            117 -94 callgsubr
            return
          </CharString>
          <CharString index="596">
            rlineto
            218 vlineto
            return
          </CharString>
          <CharString index="597">
            99 -48 36 -36 367.5 -114.5 96 hintmask 00011001
            return
          </CharString>
          <CharString index="598">
            -100 77 callgsubr
            return
          </CharString>
          <CharString index="599">
            226 -41 544 callgsubr
            return
          </CharString>
          <CharString index="600">
            543 callsubr
            hstemhm
            50 68 return
          </CharString>
          <CharString index="601">
            99 -99 290 593 callsubr
            98 334 109 46 92 return
          </CharString>
          <CharString index="602">
            85 51 89 -89 105 -41 99 -99 326 return
          </CharString>
          <CharString index="603">
            294 -87 callgsubr
            return
          </CharString>
          <CharString index="604">
            538 483 callgsubr
            return
          </CharString>
          <CharString index="605">
            381 -20 rmoveto
            204 90 -1 1 rlineto
            return
          </CharString>
          <CharString index="606">
            74 -94 callgsubr
            return
          </CharString>
          <CharString index="607">
            -1 -50 72 -7 rlineto
            return
          </CharString>
          <CharString index="608">
            -51 -74 -105 -32 -65 23 -34 48 14 73 52 37 rrcurveto
            127 hlineto
            return
          </CharString>
          <CharString index="609">
            -78 callgsubr
            -231 -297 vlineto
            return
          </CharString>
          <CharString index="610">
            81 -81 32 callsubr
            404.5 78 -14 -20 hstemhm
            return
          </CharString>
          <CharString index="611">
            hlineto
            -106 -53 -56 -60 -79 93 -91 110 -25 hvcurveto
            153 52 rlineto
            return
          </CharString>
          <CharString index="612">
            166 103 122 151 482 callsubr
            hvcurveto
            return
          </CharString>
          <CharString index="613">
            -43 -86 -110 -26 -66 20 rrcurveto
            endchar
          </CharString>
          <CharString index="614">
            95 -95 357.5 -332.5 95 hintmask 11100100
            return
          </CharString>
          <CharString index="615">
            572 23 216 111 -102 87 hstemhm
            -221 66 hintmask 11010000
            return
          </CharString>
          <CharString index="616">
            rrcurveto
            114 25 73 75 81 vvcurveto
            111 -3 -96 87 -90 hhcurveto
            return
          </CharString>
          <CharString index="617">
            397 callgsubr
            rlineto
            return
          </CharString>
          <CharString index="618">
            rlineto
            230 callgsubr
            return
          </CharString>
          <CharString index="619">
            -143 hlineto
            -134 63 -116 27 -108 -69 -8 -105 rlinecurve
            return
          </CharString>
          <CharString index="620">
            -50 -26 -71 -6 -48 25 rlinecurve
            -13 21 -7 16 22 vvcurveto
            55 44 return
          </CharString>
          <CharString index="621">
            vvcurveto
            68 -61 91 -94 -72 -49 -52 -59 -22 7 -23 14 -22 vhcurveto
            return
          </CharString>
          <CharString index="622">
            655 25 callsubr
            return
          </CharString>
          <CharString index="623">
            8 23 616 callgsubr
            return
          </CharString>
          <CharString index="624" raw="1">
            16611d0b   
          </CharString>
          <CharString index="625">
            -35 35 186 95 622 callsubr
            return
          </CharString>
          <CharString index="626">
            hlineto
            hintmask 1100010110000000
            -59 callsubr
            return
          </CharString>
          <CharString index="627">
            hhcurveto
            31 20 -20 -18 10 hvcurveto
            return
          </CharString>
          <CharString index="628">
            -43 -90 -108 -28 -65 29 return
          </CharString>
          <CharString index="629">
            16 286 callsubr
            return
          </CharString>
          <CharString index="630">
            -175 1 -21 446 66 return
          </CharString>
          <CharString index="631">
            hhcurveto
            -33 -31 16 29 -17 hvcurveto
            return
          </CharString>
          <CharString index="632">
            -114 130 -90 132 return
          </CharString>
          <CharString index="633">
            595 callsubr
            52 48 rlineto
            return
          </CharString>
          <CharString index="634">
            21 8 22 9 18 10 rrcurveto
            return
          </CharString>
          <CharString index="635">
            23 470 rmoveto
            67 hlineto
            return
          </CharString>
          <CharString index="636">
            -20 447 callgsubr
            return
          </CharString>
          <CharString index="637">
            122 -122 345 return
          </CharString>
          <CharString index="638">
            448 callgsubr
            rlineto
            return
          </CharString>
          <CharString index="639">
            -29 -10 -29 -12 -25 -13 return
          </CharString>
          <CharString index="640">
            -89 62 -78 110 -103 return
          </CharString>
          <CharString index="641">
            -58 -8 -72 -47 -32 return
          </CharString>
          <CharString index="642">
            215 100 -37 91 return
          </CharString>
          <CharString index="643">
            hlineto
            -1 1 rlineto
            return
          </CharString>
          <CharString index="644">
            -13 23 vhcurveto
            17 55 rlineto
            26 -28 -46 24 -53 hhcurveto
            -86 -53 return
          </CharString>
          <CharString index="645">
            260 callgsubr
            49 92 -74 108 175 100 return
          </CharString>
          <CharString index="646">
            -151 35 -156 52 108 vvcurveto
            75 78 20 72 vhcurveto
            return
          </CharString>
          <CharString index="647">
            -70 callgsubr
            6 -84 rlineto
            return
          </CharString>
          <CharString index="648">
            227 callgsubr
            23 33 419 callgsubr
            return
          </CharString>
          <CharString index="649">
            36 -3 50 -19 33 rlinecurve
            -111 4 -22 -40 62 -85 rlineto
            return
          </CharString>
          <CharString index="650">
            -103 620 callsubr
            189 118 276 118 return
          </CharString>
          <CharString index="651">
            rlineto
            601 callgsubr
            -42 74 return
          </CharString>
          <CharString index="652">
            -42 -44 -50 -20 6 -20 12 -18 hvcurveto
            46 -30 rlineto
            -1 -9 return
          </CharString>
          <CharString index="653">
            631 callsubr
            161 109 return
          </CharString>
          <CharString index="654">
            95 -13 533 callgsubr
            14 104 199 109 return
          </CharString>
          <CharString index="655">
            257 109 return
          </CharString>
          <CharString index="656">
            rmoveto
            77 -10 rlineto
            return
          </CharString>
          <CharString index="657">
            581 callgsubr
            hstemhm
            return
          </CharString>
          <CharString index="658">
            97 233 105 56 -20 69 588 callsubr
            return
          </CharString>
          <CharString index="659">
            73 callsubr
            hstem
            54 225 vstem
            return
          </CharString>
          <CharString index="660">
            -16 20 37 callgsubr
            -24 -15 -25 -33 -15 -31 rrcurveto
            return
          </CharString>
          <CharString index="661">
            37 -58 rlineto
            371 -84 -89 hlineto
            -166 -72 -91 -90 return
          </CharString>
          <CharString index="662">
            -190 104 rcurveline
            -124 31 -118 -78 -116 vvcurveto
            return
          </CharString>
          <CharString index="663">
            -87 callsubr
            73 -152 hlineto
            -71 46 -69 51 -42 vhcurveto
            return
          </CharString>
          <CharString index="664">
            -131 61 100 -71 103 hhcurveto
            34 34 10 25 30 hvcurveto
            return
          </CharString>
          <CharString index="665">
            -113 126 -121 161 -3 vhcurveto
            -71 -42 vlineto
            return
          </CharString>
          <CharString index="666">
            474 rmoveto
            75 75 41 59 -44 vhcurveto
            16 -48 -16 -61 return
          </CharString>
          <CharString index="667">
            99 -99 258 232 callsubr
            406 109 return
          </CharString>
          <CharString index="668">
            -129 145 -98 129 vhcurveto
            return
          </CharString>
          <CharString index="669">
            88 -82 88 147 101 -48 94 return
          </CharString>
          <CharString index="670">
            -28 28 hstemhm
            204 106 32 89 return
          </CharString>
          <CharString index="671">
            -87 callsubr
            54 hlineto
            -6 -13 -3 return
          </CharString>
          <CharString index="672">
            hstemhm
            82 170 callsubr
            return
          </CharString>
          <CharString index="673">
            -142 155 -145 168 return
          </CharString>
          <CharString index="674">
            hintmask 11001100
            -6 32 rlineto
            return
          </CharString>
          <CharString index="675">
            vhcurveto
            -15 24 -7 21 return
          </CharString>
          <CharString index="676">
            -651 361 rmoveto
            return
          </CharString>
          <CharString index="677">
            105.5 return
          </CharString>
          <CharString index="678">
            -94 callgsubr
            29 return
          </CharString>
          <CharString index="679">
            -113 -84 hlineto
            return
          </CharString>
          <CharString index="680">
            -59 10 -47 -8 return
          </CharString>
          <CharString index="681">
            52 39 -6 39 return
          </CharString>
          <CharString index="682">
            rcurveline
            13 106 23 return
          </CharString>
          <CharString index="683">
            30 269 rmoveto
            91 callgsubr
            return
          </CharString>
          <CharString index="684">
            -38 58 rlineto
            -313 hlineto
            -61 -50 -22 -38 -41 hvcurveto
            return
          </CharString>
          <CharString index="685">
            -131 94 -115 105 63 44 45 60 38 vhcurveto
            return
          </CharString>
          <CharString index="686">
            -144 -60 -75 -82 -95 80 -106 112 -107 hvcurveto
            return
          </CharString>
          <CharString index="687">
            106 -80 266 -86 571 callsubr
            112 return
          </CharString>
          <CharString index="688">
            81 68 54 76 12 hvcurveto
            35 -19 35 -12 40 2 return
          </CharString>
          <CharString index="689">
            -12 41 4 rlinecurve
            595 callgsubr
            68 66 -3 27 return
          </CharString>
          <CharString index="690">
            6 callgsubr
            -217 return
          </CharString>
          <CharString index="691">
            244 callgsubr
            24 17 -12 -13 11 hvcurveto
            return
          </CharString>
          <CharString index="692">
            -49 49 178 328 callgsubr
            284 return
          </CharString>
          <CharString index="693">
            -99 -96 -68 -128 hvcurveto
            return
          </CharString>
          <CharString index="694">
            -58 vvcurveto
            -73 -39 -69 -97 return
          </CharString>
          <CharString index="695">
            568 callgsubr
            105 return
          </CharString>
          <CharString index="696">
            497 449 callsubr
            return
          </CharString>
          <CharString index="697">
            -15 9 -19 7 -20 5 return
          </CharString>
          <CharString index="698">
            -52 -20 75 545 74 return
          </CharString>
          <CharString index="699">
            434 rmoveto
            44 -20 rlineto
            return
          </CharString>
          <CharString index="700">
            232 callsubr
            33 return
          </CharString>
          <CharString index="701">
            65 58 vvcurveto
            40 return
          </CharString>
          <CharString index="702">
            112 -107 vhcurveto
            return
          </CharString>
          <CharString index="703">
            -110 72 -76 73 80 vvcurveto
            63 46 30 45 return
          </CharString>
          <CharString index="704">
            26 -26 38 287 -20 26 -20 hstemhm
            83 78 return
          </CharString>
          <CharString index="705">
            -94 callgsubr
            47 93 -64 101 190 100 return
          </CharString>
          <CharString index="706">
            -7 rlineto
            -529 vlineto
            -29 -11 -30 -11 -26 -14 return
          </CharString>
          <CharString index="707">
            255 callsubr
            35 107 -30 102 return
          </CharString>
          <CharString index="708">
            hstemhm
            68 109 211 109 -20 113 return
          </CharString>
          <CharString index="709">
            -45 callsubr
            210 -267 hlineto
            return
          </CharString>
          <CharString index="710">
            59 -37 59 -65 49 vhcurveto
            82 vlineto
            -38 30 rlineto
            return
          </CharString>
          <CharString index="711">
            385 573 25 callsubr
            return
          </CharString>
          <CharString index="712">
            -14 13 -6 14 15 vvcurveto
            31 25 24 68 vhcurveto
            return
          </CharString>
          <CharString index="713">
            rcurveline
            6 callsubr
            return
          </CharString>
          <CharString index="714">
            rrcurveto
            341 callgsubr
            return
          </CharString>
          <CharString index="715">
            hhcurveto
            -40 -45 -35 -51 -27 hvcurveto
            16 -37 86 7 return
          </CharString>
          <CharString index="716">
            89 -80 96 -50 50 199 -94 callgsubr
            return
          </CharString>
          <CharString index="717">
            17 -23 -15 callsubr
            return
          </CharString>
          <CharString index="718">
            107 488 callsubr
            return
          </CharString>
          <CharString index="719">
            21 -65 53 -74 51 -39 rrcurveto
            return
          </CharString>
          <CharString index="720">
            70 260 callgsubr
            return
          </CharString>
          <CharString index="721">
            vvcurveto
            170 callgsubr
            return
          </CharString>
          <CharString index="722">
            357 8 callgsubr
            return
          </CharString>
          <CharString index="723">
            75 25 22 7 12 19 vhcurveto
            return
          </CharString>
          <CharString index="724">
            rmoveto
            25 21 6 10 18 hvcurveto
            return
          </CharString>
          <CharString index="725">
            vvcurveto
            -57 49 -54 80 6 vhcurveto
            return
          </CharString>
          <CharString index="726">
            -35 -55 -92 -35 -50 22 rrcurveto
            return
          </CharString>
          <CharString index="727">
            -204 -21 37 -21 return
          </CharString>
          <CharString index="728">
            61 -38 28 11 rlineto
            return
          </CharString>
          <CharString index="729">
            hstemhm
            83 117 return
          </CharString>
          <CharString index="730">
            rmoveto
            43 57 rlineto
            return
          </CharString>
          <CharString index="731">
            -48 75 -2 rlineto
            return
          </CharString>
          <CharString index="732">
            103 122 114 -112 91 hintmask 11100000
            return
          </CharString>
          <CharString index="733">
            -10.5 87.5 return
          </CharString>
          <CharString index="734">
            -186 64 126 -21 22 83 -66 -21 return
          </CharString>
          <CharString index="735">
            211 -134 529 callsubr
            return
          </CharString>
          <CharString index="736">
            115 146 127 90 -27 27 hstemhm
            return
          </CharString>
          <CharString index="737">
            96 214 -94 callgsubr
            144 106 return
          </CharString>
          <CharString index="738">
            527 callgsubr
            95 99 106 return
          </CharString>
          <CharString index="739">
            125 -12 51 101 66 hhcurveto
            43 23 -38 return
          </CharString>
          <CharString index="740">
            -215 299 -278 -21 147 49 return
          </CharString>
          <CharString index="741">
            53 232 43 hstem
            178 78 vstem
            23 return
          </CharString>
          <CharString index="742">
            -52 -76 -120 -25 -57 29 rrcurveto
            endchar
          </CharString>
          <CharString index="743">
            -30 -25 -37 -21 return
          </CharString>
          <CharString index="744">
            hstem
            17 117 return
          </CharString>
          <CharString index="745">
            254 122 return
          </CharString>
          <CharString index="746">
            176 109 return
          </CharString>
          <CharString index="747">
            hlineto
            -44 -81 -108 -25 -64 18 return
          </CharString>
          <CharString index="748">
            82 -66 76 -83 -81 -65 -76 -82 return
          </CharString>
          <CharString index="749">
            111 306 109 31 93 return
          </CharString>
          <CharString index="750">
            259 hstem
            48 168 vstem
            48 return
          </CharString>
          <CharString index="751">
            -128 145 -98 130 vhcurveto
            return
          </CharString>
          <CharString index="752">
            rmoveto
            -73 484 73 vlineto
            endchar
          </CharString>
          <CharString index="753">
            89.5 return
          </CharString>
          <CharString index="754">
            vvcurveto
            -87 104 -71 92 return
          </CharString>
          <CharString index="755">
            -264 75 4 -21 return
          </CharString>
          <CharString index="756">
            -95 -81 -59 -66 -71 return
          </CharString>
          <CharString index="757">
            hintmask 101010010001011010101000
            return
          </CharString>
          <CharString index="758">
            109 hintmask 10110000
            return
          </CharString>
          <CharString index="759">
            109 hintmask 10110110
            return
          </CharString>
          <CharString index="760">
            hhcurveto
            11 9 -2 -4 return
          </CharString>
          <CharString index="761">
            86 87 -87 88 return
          </CharString>
          <CharString index="762">
            -27 19 -50 -1 -40 -9 -24 -16 rlinecurve
            22 -169 7 -289 rlineto
            return
          </CharString>
          <CharString index="763">
            39 30 13 36 34 vvcurveto
            42 -20 34 -29 27 vhcurveto
            return
          </CharString>
          <CharString index="764">
            -113 -76 rlineto
            287 vlineto
            -44 41 return
          </CharString>
          <CharString index="765">
            109 205 107 240 109 return
          </CharString>
          <CharString index="766">
            vvcurveto
            -129 146 -98 123 return
          </CharString>
          <CharString index="767">
            84 66 56 81 85 -71 83 -88 return
          </CharString>
          <CharString index="768">
            vhcurveto
            -25 17 -37 10 -47 2 rrcurveto
            return
          </CharString>
          <CharString index="769">
            hintmask 1000010110000000
            return
          </CharString>
          <CharString index="770">
            rlineto
            hintmask 10010111
            return
          </CharString>
        <CharString name=".notdef">
          -95 23 82 272 81 hstem
          47 74 272 72 vstem
          47 458 rmoveto
          -435 418 435 vlineto
          -72 -353 rmoveto
          -272 272 272 hlineto
          endchar
        </CharString>
        <CharString name="A">
          -76 callgsubr
          -156 -418 rmoveto
          101 259 100 -259 rlineto
          endchar
        </CharString>
        <CharString name="AE">
          298 418 callsubr
          -0.5 69 27.5 80.5 208 78 -53 53 hstemhm
          428 120 hintmask 10101010
          263 260 rmoveto
          165 320 rlineto
          -320 vlineto
          -448 -225 rmoveto
          6 -35 rlineto
          265 -12 callsubr
          -92 12 67 130 rlineto
          201 -120 hlineto
          -22 -9 -42 -15 -21 -12 6 -35 rcurveline
          490 1 hlineto
          4 -1 rlineto
          hintmask 01001010
          18 callgsubr
          hintmask 10111010
          -30 -108 -209 -10 rlineto
          216 vlineto
          224 430 callsubr
          -224 -18 rlineto
          222 vlineto
          201 -10 15 -94 rlineto
          69 hlineto
          106 callgsubr
          -1 hlineto
          -550 hlineto
          hintmask 10100110
          -1 -50 61 -6 -280 -524 rlineto
          hintmask 10101010
          -17 -6 -54 -19 -24 -14 rrcurveto
          endchar
        </CharString>
        <CharString name="Aacute">
          -76 callgsubr
          -166 77 20 callsubr
          -222 -626 -24 callsubr
          endchar
        </CharString>
        <CharString name="Abreve">
          -21 callgsubr
          449 75 hstem
          409 87 -73 callsubr
          -85 449 rmoveto
          55 callgsubr
          -93 14 66 -51 77 hhcurveto
          endchar
        </CharString>
        <CharString name="Acircumflex">
          -76 callgsubr
          -156 -418 rmoveto
          101 259 100 -259 rlineto
          -284 486 117 callgsubr
        </CharString>
        <CharString name="Adieresis">
          -76 callgsubr
          -156 -418 rmoveto
          101 259 100 -259 rlineto
          -191 470 -97 callsubr
          endchar
        </CharString>
        <CharString name="Agrave">
          -76 callgsubr
          62 12 145 callgsubr
          -218 -430 -24 callsubr
          endchar
        </CharString>
        <CharString name="Alpha">
          -76 callgsubr
          -156 -418 rmoveto
          101 259 100 -259 rlineto
          endchar
        </CharString>
        <CharString name="Alphaacute">
          78 callsubr
          -418 174 rmoveto
          44 -20 222 callgsubr
        </CharString>
        <CharString name="Alphaasper">
          -21 callgsubr
          400 -20 hstemhm
          -20 731 -691 292 callgsubr
          hintmask 11110000
          -105 callsubr
          hintmask 11100100
          -299 154 rmoveto
          hintmask 11101000
          140 callgsubr
          hintmask 11100100
          42 callgsubr
          454 callsubr
        </CharString>
        <CharString name="Alphaasperacute">
          207 callsubr
          -146 235 callgsubr
          -132 857 hintmask 11010010
          18 531 callsubr
          hintmask 11100010
          81 callsubr
          hintmask 11010100
          475 callsubr
          hintmask 11011000
          201 callgsubr
          -4 32 rlinecurve
          hintmask 11010100
          52 380 callsubr
          -37 359 callsubr
          226 callsubr
          315 233 rmoveto
          10 -25 rlineto
          hintmask 11010010
          147 callgsubr
        </CharString>
        <CharString name="Alphaasperacuteiotasub">
          101 callsubr
          399 -20 21 -20 hstemhm
          -146 235 callgsubr
          -132 857 663 callgsubr
          18 531 callsubr
          hintmask 0111110001000000
          81 callsubr
          275 -883 -55 callsubr
          hintmask 1001101001000000
          -59 callgsubr
          hintmask 0111110001000000
          127 callgsubr
          hintmask 0111101010000000
          -387 638 rmoveto
          hintmask 0111101100000000
          201 callgsubr
          -4 32 rlinecurve
          hintmask 0111101010000000
          52 380 callsubr
          -37 359 callsubr
          226 callsubr
          315 233 rmoveto
          10 -25 rlineto
          663 callgsubr
          147 callgsubr
        </CharString>
        <CharString name="Alphaaspergrave">
          207 callsubr
          -152 235 callgsubr
          -132 863 hintmask 11010010
          4 callgsubr
          343 105 callsubr
          hintmask 11100010
          -9 callsubr
          hintmask 11010100
          549 callgsubr
          hintmask 11011000
          374 callgsubr
          hintmask 11010100
          624 callgsubr
          -19 28 -36 359 callsubr
          454 callsubr
        </CharString>
        <CharString name="Alphaaspergraveiotasub">
          101 callsubr
          399 -20 21 -20 hstemhm
          -152 235 callgsubr
          -132 863 663 callgsubr
          4 callgsubr
          343 105 callsubr
          hintmask 0111110001000000
          -9 callsubr
          339 505 callgsubr
          hintmask 1001101001000000
          -59 callgsubr
          hintmask 0111110001000000
          127 callgsubr
          hintmask 0111101010000000
          -393 638 rmoveto
          hintmask 0111101100000000
          374 callgsubr
          hintmask 0111101010000000
          624 callgsubr
          -19 28 -36 359 callsubr
          454 callsubr
        </CharString>
        <CharString name="Alphaasperiotasub">
          101 callsubr
          400 -20 hstemhm
          -20 731 -691 292 callgsubr
          hintmask 0111111000000000
          88 callgsubr
          hintmask 1001111000000000
          -59 callgsubr
          hintmask 0111111000000000
          127 callgsubr
          hintmask 0111110010000000
          -221 638 rmoveto
          hintmask 0111110100000000
          140 callgsubr
          hintmask 0111110010000000
          42 callgsubr
          454 callsubr
        </CharString>
        <CharString name="Alphaaspertilde">
          -21 callgsubr
          328 85 -12 -20 hstemhm
          -162 873 -766 292 callgsubr
          hintmask 11101000
          -105 callsubr
          -320 269 rmoveto
          hintmask 11011000
          98 callgsubr
          hintmask 11101000
          -77 callsubr
          hintmask 11100010
          -54 -256 rmoveto
          hintmask 11100100
          25 35 109 callgsubr
          rlinecurve
          hintmask 11100010
          -86 callgsubr
          endchar
        </CharString>
        <CharString name="Alphaaspertildeiotasub">
          101 callsubr
          328 85 -12 -20 hstemhm
          -162 873 -766 292 callgsubr
          hintmask 0111110100000000
          -105 callsubr
          -320 269 rmoveto
          hintmask 0111101100000000
          98 callgsubr
          hintmask 0111110100000000
          -77 callsubr
          242 -753 -55 callsubr
          hintmask 1001110100000000
          -59 callgsubr
          hintmask 0111110100000000
          127 callgsubr
          hintmask 0111110001000000
          -296 497 rmoveto
          hintmask 0111110010000000
          25 35 109 callgsubr
          rlinecurve
          hintmask 0111110001000000
          -86 callgsubr
          endchar
        </CharString>
        <CharString name="Alphabreve">
          -21 callgsubr
          449 75 hstem
          409 87 -73 callsubr
          -85 449 rmoveto
          55 callgsubr
          -93 14 66 -51 77 hhcurveto
          endchar
        </CharString>
        <CharString name="Alphagrave">
          78 callsubr
          -426 343 468 callgsubr
          179 callgsubr
        </CharString>
        <CharString name="Alphaiotasub">
          101 callsubr
          hstemhm
          -20 731 hintmask 01111100
          88 callgsubr
          hintmask 10011100
          -59 callgsubr
          hintmask 01111100
          127 callgsubr
          endchar
        </CharString>
        <CharString name="Alphalenis">
          -21 callgsubr
          400 -20 hstem
          84 80 -73 callsubr
          -404 190 30 callsubr
        </CharString>
        <CharString name="Alphalenisacute">
          207 callsubr
          -76 81 hintmask 11011000
          -105 callsubr
          -414 174 rmoveto
          44 -20 rlineto
          hintmask 11101000
          82 callgsubr
          -209 -209 rmoveto
          25 -36 rlineto
          hintmask 11011000
          71 34 41 594 callsubr
          -26 38 -46 350 callgsubr
          -6 -38 51 -40 rcurveline
          hintmask 11101000
          357 callgsubr
        </CharString>
        <CharString name="Alphalenisacuteiotasub">
          101 callsubr
          399 -20 21 -20 hstemhm
          -76 81 hintmask 01111011
          -105 callsubr
          -414 174 rmoveto
          44 -20 rlineto
          hintmask 01111101
          82 callgsubr
          276 -883 -55 callsubr
          hintmask 10011011
          -59 callgsubr
          hintmask 01111101
          127 callgsubr
          hintmask 01111011
          -485 142 callsubr
        </CharString>
        <CharString name="Alphalenisgrave">
          207 callsubr
          -97 81 hintmask 11011000
          4 callgsubr
          343 105 callsubr
          hintmask 11101000
          -9 callsubr
          -168 -176 rmoveto
          25 -36 rlineto
          hintmask 11011000
          71 34 42 594 callsubr
          -27 38 -45 350 callgsubr
          -7 594 callgsubr
          hintmask 11101000
          216 callsubr
        </CharString>
        <CharString name="Alphalenisgraveiotasub">
          101 callsubr
          399 -20 21 -20 hstemhm
          -97 81 hintmask 01111011
          4 callgsubr
          343 105 callsubr
          hintmask 01111101
          -9 callsubr
          339 505 callgsubr
          hintmask 10011011
          -59 callgsubr
          hintmask 01111101
          127 callgsubr
          hintmask 01111011
          -507 142 callgsubr
        </CharString>
        <CharString name="Alphalenisiotasub">
          101 callsubr
          400 -20 hstemhm
          84 80 hintmask 01111110
          88 callgsubr
          hintmask 10011110
          -59 callgsubr
          hintmask 01111110
          127 callgsubr
          -326 674 30 callsubr
        </CharString>
        <CharString name="Alphalenistilde">
          -21 callgsubr
          328 85 -12 -20 hstemhm
          2 80 hintmask 11101000
          -105 callsubr
          -320 269 rmoveto
          hintmask 11011000
          98 callgsubr
          hintmask 11101000
          -77 callsubr
          -166 -221 -44 callsubr
        </CharString>
        <CharString name="Alphalenistildeiotasub">
          101 callsubr
          328 85 -12 -20 hstemhm
          2 80 hintmask 01111101
          -105 callsubr
          -320 269 rmoveto
          hintmask 01111011
          98 callgsubr
          hintmask 01111101
          -77 callsubr
          242 -753 -55 callsubr
          hintmask 10011101
          -59 callgsubr
          hintmask 01111101
          127 callgsubr
          -408 532 -44 callsubr
        </CharString>
        <CharString name="Alphawithmacron">
          29 callsubr
        </CharString>
        <CharString name="Alphawithtonos">
          -21 callgsubr
          400 -20 115 callsubr
          -418 174 234 callsubr
        </CharString>
        <CharString name="Amacron">
          29 callsubr
        </CharString>
        <CharString name="Aogonek">
          100 648 callsubr
          206 -64 callsubr
          hstemhm
          432 89 hintmask 01111000
          281 647 rmoveto
          10 -25 -228 -555 532 callsubr
          7 callsubr
          265 -12 callsubr
          -98 13 50 129 309 callsubr
          47 -121 -32 -11 -32 -12 -28 141 callgsubr
          149 hlineto
          -87 -44 -49 -59 -56 vvcurveto
          hintmask 10111000
          -57 49 -54 80 6 vhcurveto
          hintmask 01111000
          120 58 rlineto
          hintmask 10111000
          405 callsubr
          50 44 71 39 vhcurveto
          68 -57 callgsubr
          -156 -418 -24 callsubr
          endchar
        </CharString>
        <CharString name="Aring">
          -21 callgsubr
          451 43 115 68 hstem
          228 55 116 56 -73 callsubr
          -88 494 54 callsubr
          endchar
        </CharString>
        <CharString name="Atilde">
          -21 callgsubr
          524 91 115 callsubr
          23 442 rmoveto
          -41 callsubr
          endchar
        </CharString>
        <CharString name="B">
          12 callgsubr
        </CharString>
        <CharString name="Beta">
          12 callgsubr
        </CharString>
        <CharString name="C">
          107 callgsubr
          endchar
        </CharString>
        <CharString name="Cacute">
          107 callgsubr
          -151 771 222 callsubr
        </CharString>
        <CharString name="Ccaron">
          -35 -16 95 514 81 33 73 116 callgsubr
          -219 839 rmoveto
          -11 callsubr
        </CharString>
        <CharString name="Ccedilla">
          -35 -108 50 42 95 -74 -21 24 -21 606 81 hstemhm
          17 129 199 95 hintmask 11001110
          -26 callsubr
          hvcurveto
          hintmask 10011110
          -153 80 -154 192 -25 vhcurveto
          -47 -54 150 callgsubr
          58 callgsubr
          hintmask 10101110
          26 42 rlineto
          hintmask 11001110
          3 3 0 3 hhcurveto
          endchar
        </CharString>
        <CharString name="Chi">
          1 callgsubr
        </CharString>
        <CharString name="D">
          74 0 75 511.5 75.5 hstem
          204 callsubr
          296 133 vstem
          400 594 rmoveto
          199 callgsubr
          492 vlineto
          -207 -547 314 callsubr
          -529 360 callsubr
          endchar
        </CharString>
        <CharString name="Dcaron">
          74 0 75 511.5 75.5 45 73 hstem
          204 callsubr
          296 133 vstem
          400 594 rmoveto
          199 callgsubr
          492 vlineto
          -207 -547 314 callsubr
          -529 360 callsubr
          105 791 rmoveto
          -11 callsubr
        </CharString>
        <CharString name="Dcroat">
          17 callgsubr
        </CharString>
        <CharString name="Delta">
          38 0 88.5 hstem
          27 583 vstem
          27 70 rmoveto
          24 -70 rlineto
          530 hlineto
          29 77 -251 601 -105 -31 10 -25 rlineto
          39 -98 rmoveto
          173 -434 -347 -3 rlineto
          endchar
        </CharString>
        <CharString name="E">
          -89 callsubr
          endchar
        </CharString>
        <CharString name="Eacute">
          -62 callsubr
          hintmask 10101010
          180 124 callgsubr
          hintmask 10100110
          -371 -282 99 callgsubr
        </CharString>
        <CharString name="Ecaron">
          -93 callgsubr
          53 73 -23 callsubr
          hintmask 1010101100000000
          6 callgsubr
          70 169 rmoveto
          -11 callsubr
        </CharString>
        <CharString name="Ecircumflex">
          -89 callsubr
          65 92 117 callgsubr
        </CharString>
        <CharString name="Edieresis">
          -89 callsubr
          158 76 -97 callsubr
          endchar
        </CharString>
        <CharString name="Edotaccent">
          -89 callsubr
          268 76 -22 callsubr
        </CharString>
        <CharString name="Egrave">
          -62 callsubr
          hintmask 10101010
          408 690 145 callgsubr
          hintmask 10100110
          -367 -86 99 callgsubr
        </CharString>
        <CharString name="Emacron">
          -93 callgsubr
          88 79 -41 41 140 callsubr
          hintmask 1010011010000000
          -24 callgsubr
          hintmask 0110101010000000
          18 callgsubr
          hintmask 1010101010000000
          67 callgsubr
          hintmask 1010101001000000
          200 callsubr
          hintmask 1010101010000000
          -223 -18 rlineto
          227 vlineto
          199 -13 rlineto
          hintmask 1011001010000000
          295 callgsubr
          hintmask 1010101010000000
          6 callgsubr
          68 142 377 callsubr
          hintmask 1010100110000000
          47 38 rlineto
          hintmask 1010101010000000
          400 callsubr
        </CharString>
        <CharString name="Eogonek">
          -17 -265 75 4 -21 207 80 207.5 80.5 109 177 -74.5 74.5 -53.5 53.5 140 callsubr
          -140 89 hintmask 1011001101000000
          41 604 rmoveto
          72 599 callsubr
          6 -32 rcurveline
          422 hlineto
          -88 -44 -50 -60 -56 618 callsubr
          hintmask 0111010100000000
          120 58 rlineto
          hintmask 1011010101000000
          405 callsubr
          51 45 72 39 vhcurveto
          -2 1 8 47 6 86 -2 55 rlinecurve
          -68 5 67 callgsubr
          hintmask 0111010010000000
          200 callsubr
          hintmask 0111010100000000
          -223 -18 rlineto
          227 vlineto
          199 -13 rlineto
          hintmask 0111100100000000
          295 callgsubr
          hintmask 0111010100000000
          6 callgsubr
          endchar
        </CharString>
        <CharString name="Epsilon">
          -89 callsubr
          endchar
        </CharString>
        <CharString name="Epsilonacute">
          -17 0 80 -80 191.5 96 80.5 109 177 -74.5 74.5 -53.5 53.5 5 60 callsubr
          -217 -220 rmoveto
          44 -20 rlineto
          hintmask 1010001100000000
          222 callgsubr
        </CharString>
        <CharString name="Epsilonasper">
          257 callsubr
          -168 292 callgsubr
          149 -19 callsubr
          hintmask 1010100011000000
          6 callgsubr
          -98 -240 rmoveto
          hintmask 1010100101000000
          140 callgsubr
          hintmask 1010001011000000
          42 callgsubr
          hintmask 1010100011000000
          454 callsubr
        </CharString>
        <CharString name="Epsilonasperacute">
          30 callgsubr
          -334 235 callgsubr
          315 530 callsubr
          hintmask 1010100000100000
          -170 531 callsubr
          hintmask 1010001001100000
          81 callsubr
          475 callsubr
          hintmask 1010100010100000
          201 callgsubr
          -4 32 rlinecurve
          hintmask 1010000101100000
          52 380 callsubr
          -37 359 callsubr
          hintmask 1010001001100000
          226 callsubr
          hintmask 1010010000100000
          263 190 -66 callsubr
          hintmask 0110100000100000
          18 callgsubr
          hintmask 1010100000100000
          67 callgsubr
          hintmask 1010100000010000
          200 callsubr
          hintmask 1010100000100000
          -223 -18 rlineto
          227 vlineto
          199 -13 rlineto
          hintmask 1011000000100000
          295 callgsubr
          hintmask 1010100000100000
          6 callgsubr
          endchar
        </CharString>
        <CharString name="Epsilonaspergrave">
          30 callgsubr
          -340 235 callgsubr
          321 530 callsubr
          hintmask 1010010000100000
          -24 callgsubr
          hintmask 0110100000100000
          18 callgsubr
          hintmask 1010100000100000
          67 callgsubr
          hintmask 1010100000010000
          200 callsubr
          hintmask 1010100000100000
          -223 -18 rlineto
          227 vlineto
          199 -13 rlineto
          hintmask 1011000000100000
          295 callgsubr
          hintmask 1010100000100000
          583 callsubr
          -51 105 callsubr
          hintmask 1010001001100000
          297 callgsubr
          hintmask 1010100010100000
          374 callgsubr
          hintmask 1010000101100000
          624 callgsubr
          -19 28 -36 359 callsubr
          hintmask 1010001001100000
          454 callsubr
        </CharString>
        <CharString name="Epsilongrave">
          -17 0 80 -80 191.5 96 80.5 109 177 -74.5 74.5 -53.5 53.5 5 60 callsubr
          -224 -51 468 callgsubr
          rlineto
          hintmask 1010001100000000
          179 callgsubr
        </CharString>
        <CharString name="Epsilonlenis">
          257 callsubr
          -104 80 137 530 callsubr
          hintmask 1010010010000000
          -24 callgsubr
          hintmask 0110100010000000
          18 callgsubr
          hintmask 1010100010000000
          67 callgsubr
          hintmask 1010100001000000
          200 callsubr
          hintmask 1010100010000000
          -223 -18 rlineto
          227 vlineto
          199 -13 rlineto
          hintmask 1011000010000000
          295 callgsubr
          hintmask 1010100110000000
          6 callgsubr
          -203 -204 rmoveto
          25 -36 rlineto
          hintmask 1010001110000000
          71 34 41 594 callsubr
          -26 179 callsubr
          -19 -28 -6 594 callgsubr
          hintmask 1010100110000000
          216 callsubr
        </CharString>
        <CharString name="Epsilonlenisacute">
          30 callgsubr
          -263 81 295 -19 callsubr
          hintmask 1010100001000000
          6 callgsubr
          -212 -220 rmoveto
          44 -20 rlineto
          hintmask 1010001011000000
          82 callgsubr
          -209 -209 rmoveto
          25 -36 rlineto
          hintmask 1010000111000000
          71 34 41 594 callsubr
          -26 38 -46 350 callgsubr
          -6 -38 51 -40 rcurveline
          hintmask 1010001011000000
          357 callgsubr
        </CharString>
        <CharString name="Epsilonlenisgrave">
          30 callgsubr
          -285 81 317 -19 callsubr
          hintmask 1010100001000000
          583 callsubr
          -51 105 callsubr
          hintmask 1010001011000000
          -9 callsubr
          -168 -176 rmoveto
          25 -36 rlineto
          hintmask 1010000111000000
          71 34 42 594 callsubr
          -27 38 -45 350 callgsubr
          -7 594 callgsubr
          hintmask 1010001011000000
          216 callsubr
        </CharString>
        <CharString name="Epsilonwithtonos">
          -17 0 80 -80 191.5 96 80.5 109 177 -74.5 74.5 -53.5 53.5 6 60 callsubr
          -217 -220 rmoveto
          43 -19 rlineto
          hintmask 1010001100000000
          294 callgsubr
        </CharString>
        <CharString name="Eta">
          26 callsubr
        </CharString>
        <CharString name="Etaacute">
          224 callsubr
          5 43 callsubr
          -206 402 rmoveto
          44 -20 rlineto
          hintmask 10001110
          222 callgsubr
        </CharString>
        <CharString name="Etaasper">
          224 callsubr
          6 -20 hstemhm
          -171 292 callgsubr
          152 590 callgsubr
          hintmask 1010000110000000
          85 callsubr
          hintmask 0110000110000000
          245 callsubr
          hintmask 1001000110000000
          -92 callsubr
          hintmask 1010000110000000
          502 callsubr
          hintmask 1001000110000000
          222 264 callgsubr
          -527 vlineto
          -29 -11 -30 -11 -26 -14 rrcurveto
          hintmask 1010001110000000
          -87 382 rmoveto
          hintmask 1010010110000000
          140 callgsubr
          hintmask 1000101110000000
          42 callgsubr
          hintmask 1010001110000000
          454 callsubr
        </CharString>
        <CharString name="Etaasperacute">
          238 callsubr
          -337 235 callgsubr
          318 590 callgsubr
          hintmask 1010000011000000
          -173 531 callsubr
          hintmask 1000100111000000
          81 callsubr
          475 callsubr
          hintmask 1010001011000000
          201 callgsubr
          -4 32 rlinecurve
          hintmask 1000010111000000
          52 380 callsubr
          -37 359 callsubr
          hintmask 1000100111000000
          226 callsubr
          hintmask 1010000011000000
          253 47 callgsubr
        </CharString>
        <CharString name="Etaasperacuteiotasub">
          428 callgsubr
          5 -20 21 -20 hstemhm
          -337 235 callgsubr
          318 590 callgsubr
          hintmask 0111010000011000
          -173 531 callsubr
          hintmask 0111000100011000
          81 callsubr
          523 -883 -55 callsubr
          hintmask 1001010000011000
          -59 callgsubr
          hintmask 0111000100011000
          127 callgsubr
          hintmask 0111010000111000
          -635 638 rmoveto
          hintmask 0111010001011000
          201 callgsubr
          -4 32 rlinecurve
          hintmask 0111000010111000
          52 380 callsubr
          -37 359 callsubr
          hintmask 0111010000111000
          226 callsubr
          hintmask 0111010000011000
          253 -382 -9 callgsubr
          hintmask 0110110000011000
          245 callsubr
          hintmask 0111001000011000
          -92 callsubr
          hintmask 0111010000011000
          502 callsubr
          hintmask 0111001000011000
          222 426 callgsubr
          -527 vlineto
          -29 -11 -30 -11 -26 -14 rrcurveto
          endchar
        </CharString>
        <CharString name="Etaaspergrave">
          238 callsubr
          -343 235 callgsubr
          324 590 callgsubr
          hintmask 1010000011000000
          -178 241 callsubr
          hintmask 1000100111000000
          297 callgsubr
          hintmask 1010001011000000
          374 callgsubr
          hintmask 1000010111000000
          624 callgsubr
          -19 28 -36 359 callsubr
          hintmask 1000100111000000
          226 callsubr
          hintmask 1010000011000000
          259 47 callgsubr
        </CharString>
        <CharString name="Etaaspergraveiotasub">
          428 callgsubr
          5 -20 21 -20 hstemhm
          -343 235 callgsubr
          324 590 callgsubr
          hintmask 0111010000011000
          -178 241 callsubr
          hintmask 0111000100011000
          -9 callsubr
          587 505 callgsubr
          hintmask 1001010000011000
          -59 callgsubr
          hintmask 0111000100011000
          127 callgsubr
          hintmask 0111010000111000
          -641 638 rmoveto
          hintmask 0111010001011000
          374 callgsubr
          hintmask 0111000010111000
          624 callgsubr
          -19 28 -36 359 callsubr
          hintmask 0111010000111000
          226 callsubr
          hintmask 0111010000011000
          259 -382 -9 callgsubr
          hintmask 0110110000011000
          245 callsubr
          hintmask 0111001000011000
          -92 callsubr
          hintmask 0111010000011000
          502 callsubr
          hintmask 0111001000011000
          222 426 callgsubr
          -527 vlineto
          -29 -11 -30 -11 -26 -14 rrcurveto
          endchar
        </CharString>
        <CharString name="Etaasperiotasub">
          428 callgsubr
          6 -20 hstemhm
          -171 292 callgsubr
          152 590 callgsubr
          hintmask 0111010000110000
          85 callsubr
          hintmask 0110110000110000
          245 callsubr
          hintmask 0111001000110000
          -92 callsubr
          hintmask 0111010000110000
          502 callsubr
          hintmask 0111001000110000
          222 263 callsubr
          -527 vlineto
          -29 -11 -30 -11 -26 -14 rrcurveto
          382 -256 -55 callsubr
          hintmask 1001010000110000
          -59 callgsubr
          hintmask 0111010000110000
          127 callgsubr
          hintmask 0111010001110000
          -469 638 rmoveto
          hintmask 0111010010110000
          140 callgsubr
          hintmask 0111000101110000
          42 callgsubr
          hintmask 0111010001110000
          454 callsubr
        </CharString>
        <CharString name="Etaaspertilde">
          170 0 364 -78 78 224 360 callgsubr
          -246 292 callgsubr
          227 590 callgsubr
          hintmask 1010000011000000
          -80 529 rmoveto
          hintmask 1000010011000000
          98 callgsubr
          hintmask 1010000011000000
          -77 callsubr
          hintmask 1001000111000000
          -54 -256 rmoveto
          hintmask 1001001011000000
          25 35 109 callgsubr
          rlinecurve
          hintmask 1001000111000000
          -86 callgsubr
          hintmask 1001000011000000
          162 -241 -9 callgsubr
          hintmask 0101000011000000
          245 callsubr
          hintmask 1000100011000000
          -92 callsubr
          hintmask 1001000011000000
          502 callsubr
          hintmask 1000100011000000
          66 callsubr
          hintmask 1001000011000000
          69 callgsubr
        </CharString>
        <CharString name="Etaaspertildeiotasub">
          339 callsubr
          224 360 callgsubr
          -246 292 callgsubr
          227 590 callgsubr
          hintmask 0111010000011000
          -80 529 rmoveto
          hintmask 0111000010011000
          98 callgsubr
          hintmask 0111010000011000
          -77 callsubr
          hintmask 0111001000011000
          490 -753 -55 callsubr
          hintmask 1001001000011000
          -59 callgsubr
          hintmask 0111001000011000
          127 callgsubr
          hintmask 0111001000111000
          -544 497 rmoveto
          hintmask 0111001001011000
          25 35 109 callgsubr
          rlinecurve
          hintmask 0111001000111000
          -86 callgsubr
          hintmask 0111001000011000
          162 -241 -9 callgsubr
          hintmask 0110101000011000
          245 callsubr
          hintmask 0111000100011000
          -92 callsubr
          hintmask 0111001000011000
          502 callsubr
          hintmask 0111000100011000
          66 callsubr
          hintmask 0111001000011000
          69 callgsubr
        </CharString>
        <CharString name="Etagrave">
          224 callsubr
          5 43 callsubr
          -214 571 468 callgsubr
          rlineto
          hintmask 10001110
          179 callgsubr
        </CharString>
        <CharString name="Etaiotasub">
          428 callgsubr
          hstemhm
          113 590 callgsubr
          hintmask 0111010110000000
          85 callsubr
          hintmask 0110110110000000
          245 callsubr
          hintmask 0111001110000000
          -92 callsubr
          hintmask 0111010110000000
          502 callsubr
          hintmask 0111001110000000
          66 callsubr
          hintmask 0111010110000000
          -58 callgsubr
          382 -256 -55 callsubr
          hintmask 1001010110000000
          -59 callgsubr
          hintmask 0111010110000000
          127 callgsubr
          endchar
        </CharString>
        <CharString name="Etalenis">
          224 callsubr
          6 -20 hstemhm
          -107 80 140 590 callgsubr
          hintmask 10100011
          85 callsubr
          hintmask 01100011
          245 callsubr
          hintmask 10010011
          -92 callsubr
          hintmask 10100011
          502 callsubr
          hintmask 10010011
          66 callsubr
          hintmask 10100011
          -58 callgsubr
          hintmask 10001111
          -192 418 30 callsubr
        </CharString>
        <CharString name="Etalenisacute">
          238 callsubr
          -267 81 299 590 callgsubr
          hintmask 1010000110000000
          85 callsubr
          hintmask 0110000110000000
          245 callsubr
          hintmask 1001000110000000
          -92 callsubr
          hintmask 1010000110000000
          502 callsubr
          hintmask 1001000110000000
          222 264 callgsubr
          -527 vlineto
          -29 -11 -30 -11 -26 -14 rrcurveto
          -202 402 rmoveto
          44 -20 rlineto
          hintmask 1000101110000000
          82 callgsubr
          -209 -209 rmoveto
          25 -36 rlineto
          hintmask 1000011110000000
          71 34 41 594 callsubr
          -26 38 -46 350 callgsubr
          -6 -38 51 -40 rcurveline
          hintmask 1000101110000000
          357 callgsubr
        </CharString>
        <CharString name="Etalenisacuteiotasub">
          428 callgsubr
          5 -20 21 -20 hstemhm
          -267 81 299 590 callgsubr
          hintmask 0111010000110000
          85 callsubr
          hintmask 0110110000110000
          245 callsubr
          hintmask 0111001000110000
          -92 callsubr
          hintmask 0111010000110000
          502 callsubr
          hintmask 0111001000110000
          222 263 callsubr
          -527 vlineto
          -29 -11 -30 -11 -26 -14 rrcurveto
          -202 402 rmoveto
          44 -20 rlineto
          hintmask 0111000100110000
          82 callgsubr
          524 -883 -55 callsubr
          hintmask 1001010000110000
          -59 callgsubr
          hintmask 0111000100110000
          127 callgsubr
          hintmask 0111000011110000
          -733 142 callsubr
        </CharString>
        <CharString name="Etalenisgrave">
          238 callsubr
          -288 81 320 590 callgsubr
          hintmask 1010000110000000
          85 callsubr
          hintmask 0110000110000000
          245 callsubr
          hintmask 1001000110000000
          -92 callsubr
          hintmask 1010000110000000
          502 callsubr
          hintmask 1001000110000000
          222 vlineto
          30 11 30 11 25 14 rrcurveto
          hintmask 1010000110000000
          413 callgsubr
          571 105 callsubr
          hintmask 1000101110000000
          -9 callsubr
          -168 -176 rmoveto
          25 -36 rlineto
          hintmask 1000011110000000
          71 34 42 594 callsubr
          -27 38 -45 350 callgsubr
          -7 594 callgsubr
          hintmask 1000101110000000
          216 callsubr
        </CharString>
        <CharString name="Etalenisgraveiotasub">
          428 callgsubr
          5 -20 21 -20 hstemhm
          -288 81 320 590 callgsubr
          hintmask 0111010000110000
          85 callsubr
          hintmask 0110110000110000
          245 callsubr
          hintmask 0111001000110000
          -92 callsubr
          hintmask 0111010000110000
          502 callsubr
          hintmask 0111001000110000
          222 vlineto
          30 11 30 11 25 14 rrcurveto
          hintmask 0111010000110000
          413 callgsubr
          571 105 callsubr
          hintmask 0111000100110000
          -9 callsubr
          587 505 callgsubr
          hintmask 1001010000110000
          -59 callgsubr
          hintmask 0111000100110000
          127 callgsubr
          hintmask 0111000011110000
          -755 142 callgsubr
        </CharString>
        <CharString name="Etalenisiotasub">
          428 callgsubr
          6 -20 hstemhm
          -107 80 140 590 callgsubr
          hintmask 0111010001100000
          85 callsubr
          hintmask 0110110001100000
          245 callsubr
          hintmask 0111001001100000
          -92 callsubr
          hintmask 0111010001100000
          502 callsubr
          hintmask 0111001001100000
          66 callsubr
          hintmask 0111010001100000
          -58 callgsubr
          382 -256 -55 callsubr
          hintmask 1001010001100000
          -59 callgsubr
          hintmask 0111010001100000
          127 callgsubr
          hintmask 0111000111100000
          -574 674 30 callsubr
        </CharString>
        <CharString name="Etalenistilde">
          170 0 364 -78 78 224 360 callgsubr
          -189 80 222 590 callgsubr
          hintmask 1001000110000000
          85 callsubr
          hintmask 0101000110000000
          245 callsubr
          hintmask 1000100110000000
          -92 callsubr
          hintmask 1001000110000000
          502 callsubr
          hintmask 1000100110000000
          66 callsubr
          hintmask 1001000110000000
          -58 callgsubr
          hintmask 1010000110000000
          -108 497 rmoveto
          662 callsubr
          98 callgsubr
          hintmask 1010000110000000
          -77 callsubr
          hintmask 1001001110000000
          -166 -221 -44 callsubr
        </CharString>
        <CharString name="Etalenistildeiotasub">
          339 callsubr
          224 360 callgsubr
          -189 80 222 590 callgsubr
          hintmask 0111001000110000
          85 callsubr
          hintmask 0110101000110000
          245 callsubr
          hintmask 0111000100110000
          -92 callsubr
          hintmask 0111001000110000
          502 callsubr
          hintmask 0111000100110000
          66 callsubr
          hintmask 0111001000110000
          -58 callgsubr
          hintmask 0111010000110000
          -108 497 rmoveto
          hintmask 0111000010110000
          98 callgsubr
          hintmask 0111010000110000
          -77 callsubr
          hintmask 0111001000110000
          490 247 callsubr
          -656 532 -44 callsubr
        </CharString>
        <CharString name="Etawithtonos">
          224 callsubr
          6 43 callsubr
          -206 402 rmoveto
          43 -19 rlineto
          hintmask 10001110
          294 callgsubr
        </CharString>
        <CharString name="Eth">
          17 callgsubr
        </CharString>
        <CharString name="Euro">
          2 -21 94 -94 288 -61 61 -21 21 82 61 -21 21 187 73 hstemhm
          84 126 hintmask 01001011
          407 -21 rmoveto
          hintmask 10101011
          185 77 -21 58 -146 -41 -110 6 -61 52 -27 75 rlinecurve
          239 hlineto
          hintmask 10011011
          36 40 rlineto
          hintmask 10101011
          -6 21 rlineto
          -283 hlineto
          -2 17 -1 17 18 vvcurveto
          10 0 10 1 10 vhcurveto
          296 hlineto
          hintmask 10100111
          35 40 rlineto
          hintmask 10101011
          -6 21 rlineto
          -317 hlineto
          18 82 40 68 58 37 53 6 54 -14 53 -29 10 -98 rcurveline
          63 hlineto
          11 34 10 58 4 55 rrcurveto
          -1 hlineto
          39 -49 -64 22 -76 hhcurveto
          -179 -98 -122 -138 -31 hvcurveto
          -63 hlineto
          -36 -40 6 -21 rlineto
          84 hlineto
          -1 -12 -1 -13 -12 vvcurveto
          -15 1 -15 1 -15 vhcurveto
          -80 hlineto
          -36 -40 6 -21 rlineto
          121 hlineto
          hintmask 01001011
          34 -126 99 -98 177 -3 rrcurveto
          endchar
        </CharString>
        <CharString name="F">
          -27 0 49 -49 65 -65 67 198.5 83 126.5 179 -75 75 -53.5 53.5 hstemhm
          111 122 -122 349 hintmask 0011001100000000
          39 604 rmoveto
          72 -7 rlineto
          -530 vlineto
          hintmask 1001010100000000
          532 callsubr
          6 -32 rcurveline
          317 410 callgsubr
          hintmask 0101010100000000
          -119 16 rlineto
          205 vlineto
          hintmask 1001010010000000
          227 -9 rlineto
          96 vlineto
          hintmask 1001010100000000
          -227 -17 rlineto
          246 vlineto
          199 -14 rlineto
          hintmask 1001100100000000
          15 -97 rlineto
          69 hlineto
          hintmask 1001010100000000
          12 63 4 80 -3 36 rrcurveto
          -489 hlineto
          endchar
        </CharString>
        <CharString name="G">
          355 callgsubr
          hstemhm
          17 128 323 116 hintmask 10010111
          498 callsubr
          hintmask 11000111
          170 vlineto
          hintmask 10100111
          77 13 663 callsubr
          79 callsubr
          hintmask 10011011
          650 callgsubr
          hintmask 10010111
          161 callgsubr
          endchar
        </CharString>
        <CharString name="Gamma">
          -65 0 49 -49 65 -65 68 402 184 -74.5 74.5 -53.5 53.5 33 callgsubr
          hintmask 00100110
          41 604 rmoveto
          72 -7 rlineto
          -529 vlineto
          hintmask 10001010
          -82 callgsubr
          319 410 callgsubr
          hintmask 01001010
          -119 16 rlineto
          521 vlineto
          195 -13 rlineto
          hintmask 10010010
          14 -103 rlineto
          69 hlineto
          hintmask 10001010
          13 66 2 80 -2 38 rrcurveto
          -484 hlineto
          endchar
        </CharString>
        <CharString name="Gbreve">
          355 callgsubr
          35 75 hstemhm
          17 128 271 87 -35 116 hintmask 1001011101000000
          498 callsubr
          hintmask 1100011101000000
          170 vlineto
          hintmask 1010011101000000
          77 13 rlineto
          hintmask 1001011101000000
          79 callsubr
          hintmask 1001101101000000
          650 callgsubr
          hintmask 1001011101000000
          161 callgsubr
          -28 729 rmoveto
          hintmask 1001011110000000
          55 callgsubr
          hintmask 1001011101000000
          -93 14 66 -51 77 hhcurveto
          endchar
        </CharString>
        <CharString name="Gcommaaccent">
          355 callgsubr
          hstemhm
          17 128 167 91 65 116 hintmask 1001011110000000
          498 callsubr
          hintmask 1100011110000000
          170 vlineto
          hintmask 1010011110000000
          77 13 rlineto
          hintmask 1001011110000000
          79 callsubr
          hintmask 1001101110000000
          650 callgsubr
          hintmask 1001011110000000
          161 callgsubr
          -102 -232 -61 callgsubr
        </CharString>
        <CharString name="H">
          26 callsubr
        </CharString>
        <CharString name="I">
          59 callsubr
          36 605 72 callgsubr
        </CharString>
        <CharString name="Iacute">
          59 callsubr
          54 124 callgsubr
          -250 -281 72 callgsubr
        </CharString>
        <CharString name="Icircumflex">
          562 callgsubr
          -68 891 -291 361 callsubr
          hintmask 10001010
          423 callgsubr
          hintmask 00101010
          -527 vlineto
          hintmask 10001010
          -46 callsubr
          hintmask 01000110
          -48 callgsubr
          hintmask 10001010
          -63 callsubr
          -56 92 rmoveto
          50 -47 145 108 150 -108 48 47 rlineto
          hintmask 00010010
          -149 145 rlineto
          -100 hlineto
          endchar
        </CharString>
        <CharString name="Idieresis">
          59 callsubr
          36 605 -62 callgsubr
          37 76 -97 callsubr
          endchar
        </CharString>
        <CharString name="Idotaccent">
          59 callsubr
          36 605 -62 callgsubr
          147 76 -22 callsubr
        </CharString>
        <CharString name="Igrave">
          59 callsubr
          282 690 145 callgsubr
          -246 -85 72 callgsubr
        </CharString>
        <CharString name="Imacron">
          -230 149 callsubr
          67 490 callgsubr
          121 122 hintmask 10010101
          28 775 425 callgsubr
          268 hlineto
          hintmask 10010011
          47 38 rlineto
          hintmask 10010101
          -5 41 rlineto
          -203 307 callsubr
          16 -170 549 callsubr
          hintmask 00110101
          -527 vlineto
          hintmask 10010101
          -46 callsubr
          hintmask 01001101
          -48 callgsubr
          hintmask 10010101
          454 callgsubr
        </CharString>
        <CharString name="Iogonek">
          -249 648 callsubr
          206 49 -49 68 532 54 -32 32 hstemhm
          43 89 -19 122 hintmask 01011001
          423 callgsubr
          -527 403 callsubr
          145 hlineto
          hintmask 10011010
          -87 -44 -49 -59 -56 618 callsubr
          hintmask 01011001
          120 58 rlineto
          hintmask 10011010
          405 callsubr
          50 44 71 39 vhcurveto
          hintmask 01011001
          76 hlineto
          hintmask 01100101
          1 49 -48 callgsubr
          hintmask 01011001
          454 callgsubr
        </CharString>
        <CharString name="Iota">
          59 callsubr
          36 605 72 callgsubr
        </CharString>
        <CharString name="Iotaacute">
          278 callsubr
          33 callgsubr
          hintmask 10010010
          -179 592 callsubr
          hintmask 10000110
          203 callsubr
          hintmask 00110010
          154 -54 549 callsubr
          248 callgsubr
          endchar
        </CharString>
        <CharString name="Iotaasper">
          130 callsubr
          6 -20 hstemhm
          -171 292 callgsubr
          152 122 hintmask 1001000010000000
          423 callgsubr
          hintmask 0011000010000000
          -527 vlineto
          hintmask 1001000010000000
          -46 callsubr
          hintmask 0100100010000000
          -48 callgsubr
          hintmask 1001000110000000
          -63 callsubr
          -96 -240 rmoveto
          hintmask 1001001010000000
          140 callgsubr
          662 callsubr
          42 callgsubr
          hintmask 1001000110000000
          454 callsubr
        </CharString>
        <CharString name="Iotaasperacute">
          318 callgsubr
          -338 235 callgsubr
          319 122 hintmask 1001000001000000
          -174 531 callsubr
          hintmask 1000010011000000
          81 callsubr
          475 callsubr
          hintmask 1001000101000000
          201 callgsubr
          -4 32 rlinecurve
          hintmask 1000001011000000
          52 380 callsubr
          -37 359 callsubr
          hintmask 1000010011000000
          226 callsubr
          hintmask 0011000001000000
          262 191 549 callsubr
          -527 vlineto
          hintmask 1001000001000000
          -46 callsubr
          hintmask 0100100001000000
          -48 callgsubr
          hintmask 1001000001000000
          454 callgsubr
        </CharString>
        <CharString name="Iotaaspergrave">
          318 callgsubr
          -344 235 callgsubr
          325 122 hintmask 1001000001000000
          -179 241 callsubr
          hintmask 1000010011000000
          297 callgsubr
          hintmask 1001000101000000
          374 callgsubr
          hintmask 1000001011000000
          624 callgsubr
          -19 28 -36 359 callsubr
          hintmask 1000010011000000
          226 callsubr
          hintmask 0011000001000000
          268 191 549 callsubr
          -527 vlineto
          hintmask 1001000001000000
          -46 callsubr
          hintmask 0100100001000000
          -48 callgsubr
          hintmask 1001000001000000
          454 callgsubr
        </CharString>
        <CharString name="Iotaaspertilde">
          562 callgsubr
          520 360 callgsubr
          -246 292 callgsubr
          227 122 hintmask 1000100001000000
          438 callgsubr
          hintmask 0100010001000000
          -48 callgsubr
          hintmask 0010100001000000
          -32 callgsubr
          hintmask 1000100001000000
          285 callgsubr
          hintmask 1001000001000000
          -108 497 rmoveto
          hintmask 1000001001000000
          98 callgsubr
          hintmask 1001000001000000
          -77 callsubr
          hintmask 1000100011000000
          -54 -256 rmoveto
          hintmask 1000100101000000
          25 35 109 callgsubr
          rlinecurve
          hintmask 1000100011000000
          -86 callgsubr
          endchar
        </CharString>
        <CharString name="Iotabreve">
          130 callsubr
          55 75 33 callgsubr
          11 87 hintmask 10010110
          183 709 rmoveto
          hintmask 10010111
          55 callgsubr
          hintmask 10010110
          -93 14 66 -51 77 hhcurveto
          -147 -104 549 callsubr
          hintmask 00110110
          -527 vlineto
          hintmask 10010110
          -46 callsubr
          hintmask 01001110
          -48 callgsubr
          hintmask 10010110
          454 callgsubr
        </CharString>
        <CharString name="Iotadieresis">
          59 callsubr
          77 731 -97 callsubr
          -257 -126 72 callgsubr
        </CharString>
        <CharString name="Iotagrave">
          278 callsubr
          33 callgsubr
          hintmask 10010010
          423 callgsubr
          hintmask 00110010
          248 callgsubr
          -223 -51 468 callgsubr
          rlineto
          hintmask 10000110
          179 callgsubr
        </CharString>
        <CharString name="Iotalenis">
          130 callsubr
          6 -20 hstemhm
          -108 80 141 122 hintmask 10010011
          -165 450 rmoveto
          25 -36 rlineto
          hintmask 10000111
          71 34 41 594 callsubr
          -26 179 callsubr
          -19 -28 -6 594 callgsubr
          hintmask 10010011
          150 callsubr
          201 155 549 callsubr
          hintmask 00110011
          -527 vlineto
          hintmask 10010011
          -46 callsubr
          hintmask 01001011
          -48 callgsubr
          hintmask 10010011
          454 callgsubr
        </CharString>
        <CharString name="Iotalenisacute">
          318 callgsubr
          -267 81 299 122 hintmask 1001000010000000
          -174 592 callsubr
          662 callsubr
          82 callgsubr
          -209 -209 rmoveto
          25 -36 rlineto
          hintmask 1000001110000000
          71 34 41 594 callsubr
          -26 38 -46 350 callgsubr
          -6 -38 51 -40 rcurveline
          662 callsubr
          377 callgsubr
          hintmask 0011000010000000
          359 155 549 callsubr
          -527 vlineto
          hintmask 1001000010000000
          -46 callsubr
          hintmask 0100100010000000
          -48 callgsubr
          hintmask 1001000010000000
          454 callgsubr
        </CharString>
        <CharString name="Iotalenisgrave">
          318 callgsubr
          -289 81 321 122 hintmask 1001000010000000
          423 callgsubr
          hintmask 0011000010000000
          -527 vlineto
          hintmask 1001000010000000
          -46 callsubr
          hintmask 0100100010000000
          -48 callgsubr
          hintmask 1001000010000000
          -63 callsubr
          -216 -51 105 callsubr
          662 callsubr
          -9 callsubr
          -168 -176 rmoveto
          25 -36 rlineto
          hintmask 1000001110000000
          71 34 42 594 callsubr
          -27 38 -45 350 callgsubr
          -7 594 callgsubr
          662 callsubr
          216 callsubr
        </CharString>
        <CharString name="Iotalenistilde">
          562 callgsubr
          520 360 callgsubr
          -189 80 222 122 hintmask 1000100010000000
          438 callgsubr
          hintmask 0100010010000000
          -48 callgsubr
          hintmask 0010100010000000
          -32 callgsubr
          hintmask 1000100010000000
          285 callgsubr
          hintmask 1001000010000000
          -108 497 rmoveto
          hintmask 1000001010000000
          98 callgsubr
          hintmask 1001000010000000
          -77 callsubr
          hintmask 1000100110000000
          -166 -221 -44 callsubr
        </CharString>
        <CharString name="Iotawithmacron">
          130 callsubr
          88 79 -41 41 33 callgsubr
          hintmask 10010101
          -13 796 377 callsubr
          hintmask 10010011
          47 38 rlineto
          hintmask 10010101
          439 callgsubr
          49 -191 549 callsubr
          hintmask 00110101
          -527 vlineto
          hintmask 10010101
          -46 callsubr
          hintmask 01001101
          -48 callgsubr
          hintmask 10010101
          454 callgsubr
        </CharString>
        <CharString name="Iotawithtonos">
          130 callsubr
          6 -20 33 callgsubr
          hintmask 10010010
          423 callgsubr
          hintmask 00110010
          248 callgsubr
          -216 -220 rmoveto
          43 -19 rlineto
          hintmask 10000110
          294 callgsubr
        </CharString>
        <CharString name="J">
          -240 593 61 -49 49 -32 32 hstemhm
          133 122 hintmask 01010000
          39 605 rmoveto
          hintmask 10010000
          94 -12 rlineto
          -459 vlineto
          -150 -59 -62 -85 -53 vhcurveto
          36 -53 rlineto
          123 58 107 79 152 vvcurveto
          hintmask 00110000
          481 vlineto
          29 11 30 11 25 14 -6 32 rcurveline
          -293 hlineto
          endchar
        </CharString>
        <CharString name="K">
          16 callsubr
        </CharString>
        <CharString name="KORONIS">
          344 callgsubr
          164 81 vstem
          108 565 -95 callgsubr
        </CharString>
        <CharString name="Kappa">
          16 callsubr
        </CharString>
        <CharString name="Kcommaaccent">
          78 0 53.5 546.5 547 callgsubr
          113 122 105 91 hintmask 11001100
          35 605 rmoveto
          78 -10 rlineto
          -527 403 callsubr
          291 -12 callsubr
          -91 12 rlineto
          179 vlineto
          54 57 215 -297 rlineto
          169 hlineto
          1 50 -59 7 -245 327 664 callgsubr
          195 207 27 9 28 10 21 12 rlinecurve
          567 callsubr
          -233 hlineto
          hintmask 10101100
          -1 -49 68 -9 -234 -251 664 callgsubr
          241 203 callgsubr
          -278 hlineto
          271 -906 -61 callgsubr
        </CharString>
        <CharString name="L">
          176 callgsubr
          hintmask 10101000
          36 605 185 callgsubr
          endchar
        </CharString>
        <CharString name="Lacute">
          176 callgsubr
          hintmask 10101000
          57 124 callgsubr
          -253 -281 185 callgsubr
          endchar
        </CharString>
        <CharString name="Lamda">
          100 0 53.5 hstem
          -20 731 vstem
          281 647 rmoveto
          10 -25 -228 -555 532 callsubr
          7 callsubr
          265 -12 callsubr
          -98 13 177 457 174 -449 -32 -11 -33 -12 -27 141 callgsubr
          291 -57 callgsubr
          endchar
        </CharString>
        <CharString name="Lcaron">
          176 callgsubr
          218 98 hintmask 10101100
          423 callgsubr
          -527 403 callsubr
          514 hlineto
          hintmask 01101100
          10 54 4 96 -1 65 -72 5 rcurveline
          hintmask 10011100
          -33 -131 -221 -14 rlineto
          511 -87 callgsubr
          hintmask 10101100
          -63 callsubr
          370 -126 100 callsubr
        </CharString>
        <CharString name="Lcommaaccent">
          176 callgsubr
          16 91 hintmask 10101000
          36 605 185 callgsubr
          hintmask 10101100
          181 -906 -61 callgsubr
        </CharString>
        <CharString name="Lslash">
          -19 0 82 -82 217.5 382.5 54 -32 32 hstemhm
          129 122 hintmask 10101000
          52 444 callgsubr
          -276 vlineto
          -101 -55 32 -59 69 37 rlineto
          -174 80 callgsubr
          233 vlineto
          138 74 12 53 -17 23 -133 -72 rlineto
          200 -87 callgsubr
          hintmask 10101000
          454 callgsubr
        </CharString>
        <CharString name="M">
          -14 callgsubr
        </CharString>
        <CharString name="Mu">
          -14 callgsubr
        </CharString>
        <CharString name="N">
          23 callsubr
        </CharString>
        <CharString name="NULL">
          -457 endchar
        </CharString>
        <CharString name="Nacute">
          25 callgsubr
          hstemhm
          113 92 351 91 hintmask 10100110
          239 124 callgsubr
          -443 -854 233 callgsubr
          258 -12 callsubr
          -88 11 rlineto
          324 vlineto
          -16 130 rlineto
          hintmask 01100110
          325 callgsubr
          hintmask 10001110
          204 callgsubr
          hintmask 10100110
          592 callgsubr
          hintmask 10010110
          280 callgsubr
          hintmask 10100110
          63 callsubr
          endchar
        </CharString>
        <CharString name="Ncaron">
          25 callgsubr
          53 73 61 callgsubr
          143 791 rmoveto
          hintmask 10100111
          -11 callsubr
        </CharString>
        <CharString name="Ncommaaccent">
          25 callgsubr
          hstemhm
          113 92 145 91 115 91 hintmask 10100111
          272 callgsubr
          hintmask 01100111
          325 callgsubr
          hintmask 10001111
          204 callgsubr
          hintmask 10100111
          592 callgsubr
          hintmask 10010111
          280 callgsubr
          hintmask 10100111
          63 callsubr
          289 -284 -61 callgsubr
        </CharString>
        <CharString name="Ntilde">
          25 callgsubr
          130 91 61 callgsubr
          hintmask 10100111
          445 670 rmoveto
          -41 callsubr
          endchar
        </CharString>
        <CharString name="Nu">
          23 callsubr
        </CharString>
        <CharString name="O">
          -90 callgsubr
          endchar
        </CharString>
        <CharString name="OE">
          308 -13 79 -66 82 -82 191 callsubr
          81 207 78.5 -65 80 hstemhm
          17 128 294 122 -122 338 hintmask 1001011100000000
          145 330 rmoveto
          99 35 99 59 45 vhcurveto
          11 30 34 5 35 hhcurveto
          35 36 -5 -12 30 hvcurveto
          -491 vlineto
          -12 -26 -33 -3 -31 hhcurveto
          -142 -62 130 134 hvcurveto
          192 -343 rmoveto
          hintmask 0101101100000000
          36 36 3 10 34 hvcurveto
          410 hlineto
          hintmask 0011101100000000
          18 callgsubr
          hintmask 0101101100000000
          -30 -107 -206 -10 rlineto
          215 vlineto
          hintmask 0101101010000000
          216 430 callsubr
          hintmask 0101101100000000
          -216 -17 rlineto
          220 vlineto
          198 -9 15 -94 rlineto
          69 hlineto
          106 callgsubr
          -395 hlineto
          hintmask 0101011100000000
          10 -34 -35 5 -36 hhcurveto
          -158 -181 -101 -235 hvcurveto
          hintmask 1001011100000000
          -243 162 -103 158 vhcurveto
          endchar
        </CharString>
        <CharString name="Oacute">
          -90 callgsubr
          -143 695 222 callsubr
        </CharString>
        <CharString name="Ocircumflex">
          -90 callgsubr
          -216 686 117 callgsubr
        </CharString>
        <CharString name="Odieresis">
          -90 callgsubr
          93 670 53 callsubr
        </CharString>
        <CharString name="Ograve">
          -90 callgsubr
          85 630 145 callgsubr
          endchar
        </CharString>
        <CharString name="Ohungarumlaut">
          -90 callgsubr
          -175 702 337 callsubr
        </CharString>
        <CharString name="Omacron">
          409 callgsubr
          68 490 callgsubr
          17 530 callgsubr
          hintmask 11101100
          335 -20 -104 callgsubr
          -213 736 377 callsubr
          hintmask 11011100
          47 38 rlineto
          hintmask 11101100
          400 callsubr
        </CharString>
        <CharString name="Omega">
          401 callsubr
          404.5 78 565 callsubr
          hintmask 10111000
          30 hmoveto
          -98 callsubr
          hintmask 01111000
          10 callsubr
          hintmask 10111000
          -92 callgsubr
          hintmask 01111000
          262 callgsubr
          hintmask 10111000
          106 callsubr
          endchar
        </CharString>
        <CharString name="Omegaacute">
          401 callsubr
          404.5 78 -15 -20 565 callsubr
          hintmask 10101100
          30 hmoveto
          -98 callsubr
          hintmask 01101100
          10 callsubr
          hintmask 10101100
          -92 callgsubr
          hintmask 01101100
          262 callgsubr
          hintmask 10101100
          106 callsubr
          -118 592 callsubr
          hintmask 10011100
          222 callgsubr
        </CharString>
        <CharString name="Omegaasper">
          183 0 503 callsubr
          -81 292 callgsubr
          31 170 callsubr
          hintmask 10100011
          30 hmoveto
          -98 callsubr
          hintmask 01100011
          10 callsubr
          hintmask 10100011
          -92 callgsubr
          hintmask 01100011
          262 callgsubr
          hintmask 10100011
          106 callsubr
          hintmask 10100111
          1 414 rmoveto
          hintmask 10101011
          140 callgsubr
          hintmask 10010111
          42 callgsubr
          hintmask 10100111
          454 callsubr
        </CharString>
        <CharString name="Omegaasperacute">
          187 callgsubr
          -247 235 callgsubr
          197 170 callsubr
          hintmask 1010000110000000
          -83 531 callsubr
          hintmask 1001001110000000
          81 callsubr
          475 callsubr
          hintmask 1010010110000000
          201 callgsubr
          -4 32 rlinecurve
          hintmask 1000101110000000
          52 380 callsubr
          -37 359 callsubr
          hintmask 1001001110000000
          226 callsubr
          hintmask 1010000110000000
          165 -414 rmoveto
          -98 callsubr
          hintmask 0110000110000000
          10 callsubr
          hintmask 1010000110000000
          -92 callgsubr
          hintmask 0110000110000000
          262 callgsubr
          hintmask 1010000110000000
          106 callsubr
          endchar
        </CharString>
        <CharString name="Omegaasperacuteiotasub">
          383 callsubr
          -15 -20 21 -20 hstemhm
          -247 235 callgsubr
          197 170 callsubr
          hintmask 0111010000110000
          -83 531 callsubr
          hintmask 0111001000110000
          81 callsubr
          442 -883 -55 callsubr
          hintmask 1001010000110000
          -59 callgsubr
          hintmask 0111001000110000
          127 callgsubr
          hintmask 0111010001110000
          -554 638 rmoveto
          hintmask 0111010010110000
          201 callgsubr
          -4 32 rlinecurve
          hintmask 0111000101110000
          52 380 callsubr
          -37 359 callsubr
          hintmask 0111010001110000
          226 callsubr
          hintmask 0111010000110000
          165 -414 rmoveto
          -98 callsubr
          hintmask 0110110000110000
          10 callsubr
          hintmask 0111010000110000
          -92 callgsubr
          hintmask 0110110000110000
          262 callgsubr
          hintmask 0111010000110000
          106 callsubr
          endchar
        </CharString>
        <CharString name="Omegaaspergrave">
          187 callgsubr
          -253 235 callgsubr
          203 170 callsubr
          hintmask 1010000110000000
          -88 241 callsubr
          hintmask 1001001110000000
          297 callgsubr
          hintmask 1010010110000000
          374 callgsubr
          hintmask 1000101110000000
          624 callgsubr
          -19 28 -36 359 callsubr
          hintmask 1001001110000000
          226 callsubr
          hintmask 1010000110000000
          171 -414 rmoveto
          -98 callsubr
          hintmask 0110000110000000
          10 callsubr
          hintmask 1010000110000000
          -92 callgsubr
          hintmask 0110000110000000
          262 callgsubr
          hintmask 1010000110000000
          106 callsubr
          endchar
        </CharString>
        <CharString name="Omegaaspergraveiotasub">
          383 callsubr
          -15 -20 21 -20 hstemhm
          -253 235 callgsubr
          203 170 callsubr
          hintmask 0111010000110000
          -88 241 callsubr
          hintmask 0111001000110000
          -9 callsubr
          506 505 callgsubr
          hintmask 1001010000110000
          -59 callgsubr
          hintmask 0111001000110000
          127 callgsubr
          hintmask 0111010001110000
          -560 638 rmoveto
          hintmask 0111010010110000
          374 callgsubr
          hintmask 0111000101110000
          624 callgsubr
          -19 28 -36 359 callsubr
          hintmask 0111010001110000
          226 callsubr
          hintmask 0111010000110000
          171 -414 rmoveto
          -98 callsubr
          hintmask 0110110000110000
          10 callsubr
          hintmask 0111010000110000
          -92 callgsubr
          hintmask 0110110000110000
          262 callgsubr
          hintmask 0111010000110000
          106 callsubr
          endchar
        </CharString>
        <CharString name="Omegaasperiotasub">
          383 callsubr
          -14 -20 hstemhm
          -81 292 callgsubr
          31 170 callsubr
          hintmask 0111010001100000
          30 hmoveto
          -98 callsubr
          hintmask 0110110001100000
          10 callsubr
          hintmask 0111010001100000
          -92 callgsubr
          hintmask 0110110001100000
          262 callgsubr
          hintmask 0111010001100000
          106 callsubr
          389 353 callgsubr
          hintmask 1001010001100000
          -59 callgsubr
          hintmask 0111010001100000
          127 callgsubr
          hintmask 0111010011100000
          -388 638 rmoveto
          hintmask 0111010101100000
          140 callgsubr
          hintmask 0111001011100000
          42 callgsubr
          hintmask 0111010011100000
          454 callsubr
        </CharString>
        <CharString name="Omegaaspertilde">
          401 callsubr
          396.5 85 -77 78 -13 -20 hstemhm
          -156 292 callgsubr
          106 170 callsubr
          hintmask 1010000110000000
          10 529 rmoveto
          hintmask 1000100110000000
          98 callgsubr
          hintmask 1010000110000000
          -77 callsubr
          hintmask 1001001110000000
          -54 -256 rmoveto
          hintmask 1001010110000000
          25 35 109 callgsubr
          rlinecurve
          hintmask 1001001110000000
          -86 callgsubr
          hintmask 1001000110000000
          74 -273 rmoveto
          -98 callsubr
          hintmask 0101000110000000
          10 callsubr
          hintmask 1001000110000000
          -92 callgsubr
          hintmask 0101000110000000
          262 callgsubr
          hintmask 1001000110000000
          106 callsubr
          endchar
        </CharString>
        <CharString name="Omegaaspertildeiotasub">
          183 -50 callgsubr
          81 -81 32 callsubr
          396.5 85 -77 78 -13 -20 hstemhm
          -156 292 callgsubr
          106 170 callsubr
          hintmask 0111010000110000
          10 529 rmoveto
          hintmask 0111000100110000
          98 callgsubr
          hintmask 0111010000110000
          -77 callsubr
          hintmask 0111001000110000
          409 247 callsubr
          -463 497 rmoveto
          hintmask 0111001010110000
          25 35 109 callgsubr
          rlinecurve
          hintmask 0111001001110000
          -86 callgsubr
          hintmask 0111001000110000
          74 -273 rmoveto
          -98 callsubr
          hintmask 0110101000110000
          10 callsubr
          hintmask 0111001000110000
          -92 callgsubr
          hintmask 0110101000110000
          262 callgsubr
          hintmask 0111001000110000
          106 callsubr
          endchar
        </CharString>
        <CharString name="Omegagrave">
          401 callsubr
          404.5 78 -15 -20 565 callsubr
          hintmask 10101100
          30 hmoveto
          -98 callsubr
          hintmask 01101100
          10 callsubr
          hintmask 10101100
          -92 callgsubr
          hintmask 01101100
          262 callgsubr
          hintmask 10101100
          106 callsubr
          -126 603 468 callgsubr
          664 callgsubr
          179 callgsubr
        </CharString>
        <CharString name="Omegaiotasub">
          383 callsubr
          565 callsubr
          hintmask 01110111
          30 hmoveto
          -98 callsubr
          hintmask 01101111
          10 callsubr
          hintmask 01110111
          -92 callgsubr
          hintmask 01101111
          262 callgsubr
          hintmask 01110111
          106 callsubr
          389 353 callgsubr
          hintmask 10010111
          -59 callgsubr
          hintmask 01110111
          127 callgsubr
          endchar
        </CharString>
</ttFont>
